<svg width="42" height="40" viewBox="0 0 42 40" fill="none" xmlns="http://www.w3.org/2000/svg">
<path d="M10.0332 10.4695C10.2083 11.5867 10.5588 12.7118 10.9668 13.7576C11.1782 14.2968 11.4118 14.8443 11.667 15.3914V35.326L2.39941 39.3621C1.24733 39.8617 0 38.9416 0 37.5936V16.1209C0 15.344 0.437299 14.6459 1.10059 14.3524L10.0332 10.4695ZM28 39.4891L14 35.1356V19.7205C15.4947 22.2023 17.0841 24.4462 18.0977 25.826C19.5924 27.856 22.4076 27.856 23.9023 25.826C24.9159 24.4462 26.5053 22.2023 28 19.7205V39.4891ZM39.6006 9.78497C40.7525 9.28546 41.9997 10.2048 42 11.5526V33.0262C42 33.8031 41.5628 34.5012 40.8994 34.7947L30.333 39.3856V15.3914C30.5882 14.8443 30.8218 14.2968 31.0332 13.7576C31.0697 13.6625 31.1061 13.5588 31.1426 13.4637L39.6006 9.78497ZM10.041 10.4666L10.0332 10.4695V10.4666H10.041Z" fill="#89C594"/>
<mask id="mask0_0_1" style="mask-type:alpha" maskUnits="userSpaceOnUse" x="0" y="0" width="42" height="40">
<path d="M29.75 9.51553C29.75 13.8451 24.4198 21.5606 22.0792 24.7404C21.5177 25.5016 20.475 25.5016 19.9208 24.7404C17.5802 21.5606 12.25 13.8451 12.25 9.51553C12.25 4.2582 16.1656 0 21 0C25.8344 0 29.75 4.2582 29.75 9.51553ZM30.3333 15.8909C30.5885 15.3438 30.8219 14.7967 31.0333 14.2574C31.0698 14.1623 31.1062 14.0592 31.1427 13.964L39.601 10.2847C40.7531 9.78514 42 10.705 42 12.053V33.5264C42 34.3035 41.5625 35.0013 40.899 35.2947L30.3333 39.8859V15.8909ZM10.0333 10.9667C10.2083 12.0847 10.5583 13.2107 10.9667 14.2574C11.1781 14.7967 11.4115 15.3438 11.6667 15.8909V35.826L2.39896 39.8622C1.24688 40.3617 0 39.4419 0 38.0939V16.6205C0 15.8434 0.4375 15.1456 1.10104 14.8522L10.0406 10.9667H10.0333ZM23.9021 26.3263C24.9156 24.9466 26.5052 22.7025 28 20.2205V39.989L14 35.6357V20.2205C15.4948 22.7025 17.0844 24.9466 18.0979 26.3263C19.5927 28.3563 22.4073 28.3563 23.9021 26.3263ZM21 12.053C21.7735 12.053 22.5154 11.7188 23.0624 11.124C23.6094 10.5292 23.9167 9.72239 23.9167 8.88117C23.9167 8.03994 23.6094 7.23317 23.0624 6.63833C22.5154 6.0435 21.7735 5.70932 21 5.70932C20.2265 5.70932 19.4846 6.0435 18.9376 6.63833C18.3906 7.23317 18.0833 8.03994 18.0833 8.88117C18.0833 9.72239 18.3906 10.5292 18.9376 11.124C19.4846 11.7188 20.2265 12.053 21 12.053Z" fill="#89C594"/>
</mask>
<g mask="url(#mask0_0_1)">
<path d="M31 8C31 13.799 26.5228 26 21 26C15.4772 26 11 13.799 11 8C11 2.20101 15.4772 -2.5 21 -2.5C26.5228 -2.5 31 2.20101 31 8Z" fill="#FB5656"/>
</g>
</svg>
