<?xml version="1.0"?>
<svg xmlns="http://www.w3.org/2000/svg" version="1.2" baseProfile="tiny" width="100%" height="100%" viewBox="0 0 800 1149" fill="#6f9c76" stroke="#ffffff" stroke-linecap="round" stroke-linejoin="round" stroke-width=".5">
<g id="1">
<path d="M 142.69 481.03 142.63 480.97 142.32 480.97 141.74 480.96 140.99 481.39 139.17 482.51 138.47 482.91 137.37 483.54 137.05 483.72 135.19 482.98 133.25 483.79 133.04 483.54 132.72 483.14 130.28 484.35 128.77 483.94 128.72 484.01 127.58 485.56 127.53 485.58 126.83 485.86 126.6 485.96 126.49 485.73 126.37 483.87 126.34 482.5 126.29 481.63 126.23 481.56 126.21 481.24 126.08 480.93 125.94 480.74 125.35 480.26 124.49 479.67 124.41 479.51 124.32 479.4 124.08 479.24 124.02 479.23 123.83 479.18 123.65 479.01 123.62 478.98 122.9 478.75 122.87 478.33 121.77 478.15 121.84 478 121.92 477.64 122.02 477.13 122.02 477.11 122.03 477.08 122.03 477.07 122.01 476.53 121.65 475.94 121.62 474.52 121.61 474.44 121.01 472.91 118.48 473.23 118.46 472 117.89 472.12 117.87 472.13 117.78 472.15 117.77 472.15 117.62 472.18 117.59 472.14 115.08 469.39 115.04 469.32 115.03 469.31 115.18 468.81 115.19 468.79 115.14 468.38 115.08 467.92 112.91 466.05 112.85 466.03 113.61 463.5 113.61 463.49 113.62 463.45 113.09 463.04 112.13 462.27 111.96 461.97 111.21 460.62 110.87 459.92 110.87 459.92 110.9 459.86 110.95 459.75 110.7 459.81 110.59 459.93 110.55 459.97 110.25 460.06 109.86 460.19 109.76 460.23 109.59 460.3 108.97 460.56 108.2 460.89 108.16 460.91 108.02 461.08 107.9 461.02 107.73 461.2 107.63 461.23 107.66 461.31 107.69 461.37 107.28 461.45 107.06 461.45 106.73 461.45 106.71 461.45 106.57 461.25 106.54 461.22 106.24 460.8 106.2 460.78 106.06 460.71 105.01 460.17 104.41 459.18 104.03 458.8 104 458.77 103.11 457.88 101.27 457.22 101.27 457.22 100.7 457.33 100.15 457.23 99.9 456.7 98.95 455.6 98.8 455.04 98.8 455.01 98.44 454.61 98.43 454.59 97.72 454.41 97.72 454.41 97.66 454.37 97.64 454.36 96.59 453.75 96.1 453.56 95.81 453.65 95.8 453.65 95.61 453.71 95.59 453.71 95.53 453.69 95.42 453.66 94.96 453.54 94.54 453.25 93.21 453.44 92.17 453.35 91.68 452.81 91.33 452.15 89.8 451.78 89.28 451.56 88.08 451.47 86.81 451.11 86.03 450.14 85.89 449.34 84.84 447.7 83.94 447.5 82.57 448.02 81.27 448.39 79.94 448.29 79.93 448.3 79.15 448.79 79.1 448.69 78.01 446.36 78.15 444.94 78.41 442.25 78.06 439.72 78.5 438.87 79.04 437.82 78.09 435.77 78.25 435.23 78.25 435.22 78.3 435.05 78.38 434.77 78.04 433.01 78.18 432.72 78.33 432.42 77.27 429.66 76.68 427.51 77.47 426.43 77.19 425.56 76.88 424.62 77 424.09 78.42 420.61 78.96 419.62 79.55 416.78 79.03 415.3 78.52 413.81 76.59 413.36 76.65 411.87 74.71 410.85 71.38 408.36 69.09 407.18 67.05 406.91 65.99 406.37 64.43 405.56 62.96 403.37 62.84 403.19 63.91 400.59 65.25 399.19 66.39 396.76 66.94 396.25 66.95 396.24 67.28 395.94 67.46 395.64 67.48 395.61 67.56 395.48 68.03 394.97 68.6 394.09 68.61 394.08 68.61 394.08 68.63 394.04 69 393.48 70.49 393.16 70.73 393.11 70.97 393.13 71.16 393.15 71.4 393.17 71.45 393.06 71.54 392.89 71.54 392.88 72.53 390.89 72.46 390.04 73.91 387.92 74.96 386.12 76.56 385.19 76.85 385.01 78.23 385.05 79.23 385.61 81.34 386.03 83.53 387.69 83.67 387.81 83.69 387.82 84.18 387.52 84.54 387.3 85.12 385.9 85.19 385.74 88.46 385.99 88.73 386.01 90.88 385.62 91.02 385.6 91.27 385.55 91.31 385.54 92.22 384.45 92.41 384.22 92.38 383.31 92.23 383.07 91.51 380.8 92.06 377.81 91.82 377.73 91.78 377.72 91.68 377.69 91.17 377.49 89.57 378.66 84.38 376 82.71 374.44 82.78 373.64 82.31 372.99 82.33 372.98 83.09 372.42 81.85 370.77 81.14 369.58 81.46 369.04 81.66 367.98 81.26 366.95 81.26 366.94 81.25 366.93 81.23 366.87 80.26 364.75 80.26 364.74 80.56 364.47 80.41 364.02 80.31 363.71 80.15 362.5 80.11 362.28 80.61 358.78 81.32 358.25 81.53 358.09 82.15 358.35 82.2 358.37 83.49 357.33 84.14 356.8 83.79 356.4 82.93 355.5 82.43 353.93 84.11 351.67 84.11 351.6 84.14 351.42 84.17 351.15 84.2 348.22 85.05 346.96 85.72 345.96 85.56 344.51 85.55 344.45 85.53 344.41 84.23 343.9 83.97 343.54 83.71 343.11 83.67 342.88 83.54 342.5 83.48 342.24 83.01 341.8 82.7 341.58 82.51 341.06 82.26 340.18 81.92 339.12 81.5 338.36 81.08 337.22 82.54 335.88 83.2 334.68 84.09 333.08 84.19 332.87 84.19 332.87 84.24 332.78 84.3 332.6 84.13 331.3 83.21 330.81 83.2 330.81 82.12 330.6 81.41 330.46 80.91 329.97 79.58 327.2 80.87 324.91 80.88 324.89 80.89 324.89 80.07 324.17 79.82 323.95 79.16 323.37 78.52 322.79 76.57 321.91 76.36 321.78 75.64 321.11 74.69 320.28 73.79 318.97 72.71 317.01 72.66 316.85 72.5 316.63 72.91 314.65 73.02 314.2 73.08 313.71 72.94 312.62 71.97 311.42 71.9 311.39 72.89 309.18 73.52 308.14 74.57 306.45 74.75 306.22 73.63 301.77 74.51 300.6 74.27 297.8 74.7 296.98 74.36 295.81 75.62 292.75 76.13 292.17 75.79 291.36 75.66 290.74 75.23 286.04 75.64 285.39 76.02 284.73 76.21 284.67 76.26 284.66 76.38 284.63 77.36 284.21 79.12 283.47 81.1 282.04 83.95 279.46 86.56 279.54 86.68 277.51 90.03 274.58 90.85 273.89 91.28 273.76 93 273.25 92.98 273.07 92.66 270.31 92.71 269.82 92.71 269.73 92.77 269 91.22 268.42 90.53 264.88 91.21 264.4 91.22 264.39 91.34 264.31 91.38 264.27 91.39 264.26 91.42 264.22 89.49 262.95 89.12 262.07 89.19 261.9 89.77 260.65 89.77 260.64 89.78 260.63 89.59 258.6 89.59 258.58 89.59 258.56 88.45 256.32 88.76 254.9 86.92 253.46 85.69 253.68 84.93 252.54 84.5 252.57 83.72 251.4 82.55 251.06 81.64 250.8 81.47 250.75 81.24 250.18 80.96 250.05 80.65 249.95 80.95 247.94 79.25 246.33 78.37 246.06 76.98 244.61 76.03 244.55 76.03 244.55 75.83 244.35 75.69 244.22 75.58 244.11 78.07 241.32 78.16 241.13 78.32 240.06 78.83 236.14 79.08 234.33 79.21 233.41 79.74 233.25 81.27 231.02 81.3 230.97 81.33 230.89 81.15 230.4 80.94 229.82 80.88 229.66 81.29 228.97 81.4 228.79 80.75 228.1 80.6 227.93 80.85 227.75 82.06 226.89 82.73 226.65 83.64 225.38 84.63 225.33 84.64 225.33 84.67 225.33 84.7 224.24 84.72 223.7 84.72 223.48 85.25 222.19 85.94 221.07 87.95 219.96 87.98 219.94 87.94 219.58 87.89 219.24 87.78 218.38 87.68 216.7 87.94 215.56 87.59 214.27 87.53 213.98 87.58 213.94 88.95 212.84 91.25 210.99 93.07 210.36 94.22 208.08 94.66 207.64 96.71 205.59 97.88 205.04 98.9 203.62 101.38 202.8 101.68 200.65 101.78 199.96 102.39 198.79 102.51 198.08 102.54 197.93 102.69 197.14 103.31 194.87 102.84 194.11 102.49 193.5 102.5 193.46 102.54 193.18 102.75 191.59 102.77 191.46 102.79 191.32 102.09 190.14 101.55 189.27 101.38 188.41 101.78 185.64 101.91 185.51 102.04 185.38 101.79 184.72 100.86 182.28 100.62 181.79 100.06 178.87 99.24 177.69 99.13 177.55 99.07 177.47 98.59 176.81 98.56 176.59 98.52 176.33 98.48 175.98 98.33 174.92 98.25 173.71 98.16 172.5 97.09 169.58 97.32 168.65 97.05 168.51 95.78 167.83 95.77 167.82 95.17 165.12 95.09 164.96 94.94 164.64 94.51 163.77 94.2 163.13 94 162.72 93.97 162.62 93.96 162.58 93.98 162.48 94.03 162.23 94.05 162.08 94.24 161.06 94.19 161.06 94.01 161.09 93.67 161.07 93.53 161.07 93.55 161.05 93.58 161.02 93.63 160.96 93.47 160.94 93.28 160.91 92.82 160.95 92.64 160.97 92.39 160.96 92.14 160.96 91.89 160.96 91.84 160.97 91.78 160.97 91.52 160.97 91.43 160.96 91.63 160.09 91.72 159.97 92.03 159.58 92.41 159.11 92.43 159.09 92.98 158.42 93.5 157.77 94.21 156.88 94.28 156.8 94.92 155.99 95.44 154.84 95.46 154.81 95.49 154.74 95.9 153.76 95.73 152.99 95.08 150.38 94.88 149.96 94.87 149.93 94.1 148.39 94.09 148.36 94.08 148.33 94.05 148.19 94.04 148.13 93.96 147.71 93.88 147.29 93.88 147.28 93.87 147.25 93.7 146.49 93.35 145.88 93.16 145.55 92.99 145.25 92.99 145.24 92.84 144.97 92.54 144.67 92.51 144.65 92.44 144.58 92.3 144.44 91.92 144.07 91.15 143.35 91.04 143.22 90.94 143.1 89.99 141.92 89.34 141.12 89.31 141.07 89.27 141.01 89.15 140.83 89.13 140.8 88.96 140.53 88.73 140.15 88.56 139.88 88.56 139.88 88.52 139.82 88.45 139.71 88.18 139.23 88.02 138.47 88.02 138.47 87.97 138.19 87.96 138.16 87.96 138.14 87.95 138.12 87.69 137.64 87.46 137.26 87.29 136.93 87.28 136.91 87.15 136.68 86.39 135.84 86.22 135.76 86.19 135.75 83.74 134.66 83.71 134.8 83.64 135.05 83.59 135.29 83.59 135.31 83.59 135.32 83.59 135.32 83.49 135.87 83.54 136.15 83.59 136.33 83.68 136.69 83.71 137.11 83.73 137.29 83.76 137.67 83.63 138.12 83.6 138.29 83.48 138.92 83.48 138.95 83.48 138.96 83.48 139.04 83.49 139.46 83.37 139.77 83.22 140.14 83.21 140.17 83.21 140.19 83.12 140.57 82.88 141.01 82.8 141.15 82.77 141.19 82.68 141.34 82.66 141.38 82.6 141.51 82.46 141.84 82.43 141.97 82.43 141.98 82.41 142.06 82.4 142.31 82.41 142.42 82.42 142.49 82.43 142.61 82.51 142.93 82.59 143.24 82.76 143.81 82.77 143.84 82.83 144.05 82.85 144.13 82.85 144.14 82.88 144.27 82.88 144.31 82.88 144.33 82.88 144.39 82.87 144.42 82.87 144.47 82.86 144.54 82.7 145.14 82.69 145.15 82.63 145.46 82.58 146.07 82.33 146.84 82.27 147.09 82.26 147.11 82.26 147.15 82.2 147.63 82.14 148.76 82.17 149.17 82.21 149.61 82.32 150.48 82.22 150.78 82.16 150.9 81.72 151.21 81.17 151.8 80.47 151.82 80.43 151.82 80.28 151.94 79.85 151.89 79.82 151.89 79.54 151.93 79.54 151.93 79.34 151.93 79.33 151.93 79.22 151.92 78.84 151.91 78.18 151.93 76.17 152.05 75.16 151.71 75.07 151.68 74.99 151.66 73.4 151.13 73.04 151.01 71.76 152.32 70.67 153.45 69.83 153.85 68.74 154.38 67.8 155.08 66.71 155.88 66.1 156.34 65.86 155.89 65.47 155.24 65.3 154.96 63.88 154.95 62.43 154.93 61.24 153.47 61.21 152.78 61.18 152.05 60.86 151.1 59.99 151.71 59.03 152.26 58.92 152.32 57.51 152.04 56.58 151.86 56.49 151.93 54.89 153.24 54.26 153.78 54.19 153.83 53.96 154.02 53.55 154.13 53.54 154.13 53.53 154.13 52.9 154.29 50.82 156.83 48.99 157.04 48.12 156.6 46.16 157.86 44.02 155.94 43.5 155.2 40.31 154.39 40.08 153.22 39.77 151.7 40.84 150.92 41.12 150.44 41.12 150.44 41.57 149.68 42.41 149.33 43.49 148.54 43.52 148.4 43.53 148.39 43.6 148.1 42.36 146.5 42.55 145.26 42.55 145.22 42.55 145.21 42.04 144.22 42.06 144.07 42.06 144.02 42.16 143.18 41.91 143.07 41.67 142.09 40.42 139.52 38.62 139.27 38.19 139.14 37.12 138.83 36.79 138.26 36.92 137.44 36.95 137.2 37.7 132.29 37.74 131.97 37.74 131.96 37.79 131.5 38.01 130.19 37.41 128.66 36.52 128.27 33.5 125.44 32.18 125.37 31.45 123.37 30.42 120.15 30.81 119.57 30.24 116.72 29.8 114.5 30.7 113.42 27.39 111.65 26.81 110.99 26.68 110.84 26.55 110.74 25.34 109.81 24.34 108.92 24.08 107.35 24.85 104.86 25.09 104.01 24.69 101.57 24.57 101.49 24.57 101.48 23.86 101 22.51 98.42 21.77 98.13 20.94 97.5 20.33 95.88 19.73 95.41 19.26 95.32 18.69 95.52 18.04 95.39 17.53 95.75 16.7 96.9 15.77 97.01 14.42 96.69 13.1 97.6 12.66 97.42 11.28 96.46 10.12 96.14 9.16 96.13 7.6 95.23 7.46 95.37 7.37 95.47 6.32 93.04 5.14 92.86 4.65 92.38 3.03 91.73 1.92 91.28 1.9 91.27 1.73 91.2 1.61 90.99 1.22 90.28 1.12 89.79 1.01 89.28 1 88.87 1.1 88.19 1.41 87.89 2.94 86.6 4.27 85.5 5.14 84.11 5.98 83.75 6.18 83.33 8.72 83.7 9.09 83.69 9.87 83.65 10.59 83.34 11.37 83.26 12.07 83.19 12.17 82.97 12.27 82.75 13.37 81.73 13.84 81.13 14.64 80.33 14.52 79.73 14.51 79.7 14.56 79.61 15.57 78.3 16.3 77.33 16.69 75.89 16.83 75.82 17.06 75.7 19.42 74.52 19.45 74.51 19.99 72.68 20.45 72.83 20.46 72.83 22.71 73.53 23.46 73.6 25.04 72.74 25.54 72.24 25.76 72.03 26.09 71.88 26.38 70.95 26.53 70.63 26.58 70.52 27.01 70.35 27.66 69.97 29.01 69.29 29.81 68.72 30.11 68.51 30.25 68.29 30.42 68 31.91 67.17 31.93 67.17 32.36 66.93 33.3 65.85 33.49 65.54 33.89 64.9 34.34 63.93 36.44 63.86 37.19 63.24 37.24 63.19 37.21 62.23 37.21 62.05 36.96 61.44 37.85 60.68 38.36 60.24 39.61 60.3 40.91 60.37 40.93 60.01 40.55 59.68 43.36 59.02 44.39 59.34 46.27 58.19 46.85 58.29 47.36 58.64 47.83 58.84 50.02 57.98 50.16 57.93 50.47 56.92 50.49 56.87 51.53 55.95 51.72 55.78 51.96 53.66 52.35 52.86 52.46 52.65 54.24 52.61 55.74 51.61 56.2 51.72 56.2 51.72 57.33 49.93 58.05 50.11 58.96 49.7 59.01 49.68 59.03 49.67 60.68 47.31 60.66 46.35 60.66 45.71 60.54 45.2 60.48 44.94 60.33 44.77 59.9 44.28 58.62 43.81 57.29 42.8 57.35 42.59 57.36 42.57 57.43 42.31 57.46 42.22 57.44 42.06 57.3 41.19 57.75 40.5 57.77 40.36 57.77 40.35 57.78 40.25 57.79 40.16 57.81 40 58.87 39.76 58.9 39.76 59.38 38.82 59.54 38.5 59.58 38.43 59.93 37.75 60.22 37.21 60.22 37.2 60.44 36.79 61.04 35.41 61.41 34.78 61.65 34.4 61.76 34.21 62.04 33.74 61.94 33.24 62.47 32.48 62.54 31.38 62.59 30.62 62.18 30.12 62.1 29.1 62.07 28.76 62.05 28.49 63.07 28.3 63.3 28.52 63.3 28.53 63.24 28.67 63.52 28.66 63.53 28.65 63.66 28.55 63.68 28.53 63.71 28.51 63.92 28.29 63.93 28.28 64.18 28.05 64.21 28.03 64.72 27.76 65.69 27.57 65.86 27.52 66.14 27.47 66.37 27.43 66.7 27.35 67.95 26.84 68.04 26.79 68.05 26.79 68.2 26.71 68.77 26.4 68.84 26.35 68.86 26.34 68.94 26.29 69.56 25.89 69.56 25.88 69.77 25.58 69.85 25.45 69.84 24.82 69.83 24.09 69.82 23.51 69.81 23.25 69.81 23.04 69.81 23.02 69.8 22.91 69.79 22.45 69.78 22.32 69.78 22.3 69.78 22.29 69.78 21.99 69.78 21.94 69.78 21.52 69.78 21.41 69.77 20.35 69.77 19.96 69.76 19.72 69.58 19.59 69.57 19.02 69.56 18.59 69.55 17.94 71.48 18.53 71.99 18.76 72.27 18.86 73.19 19.34 73.32 19.24 73.93 19.15 74.23 19.25 74.48 19.28 74.95 19.45 75.32 19.64 75.63 19.87 75.75 20 76.09 20.37 76.28 20.39 76.47 20.47 76.74 20.74 76.95 21.03 77.47 21.69 77.9 21.95 78.04 22.09 78.17 22.27 78.56 22.49 78.85 22.7 79.14 22.84 79.44 23.12 80 23.35 80.25 23.46 80.56 23.65 80.77 23.72 81.08 23.73 81.63 23.93 81.84 24.01 82.02 24.06 82.31 24.04 82.51 23.95 82.57 23.93 82.73 23.88 82.85 23.72 83.19 23.45 83.23 23.42 83.34 23.36 83.39 23.31 83.43 23.24 85.3 23.24 85.35 23.1 85.39 22.98 86.68 19.07 86.2 18.13 85.69 15.39 85.68 15.38 85.68 15.36 85.67 15.32 87.08 14.15 87.08 14.15 87.52 13.78 87.62 13.32 87.62 13.31 87.66 13.12 87.66 13.05 87.66 13.04 87.66 12.41 87.66 12.36 87.66 12.28 87.66 12.27 88.41 11.09 88.44 11.03 88.45 11.02 88.48 11 90.28 9.5 90.79 9.07 91.35 4.38 92.05 4.22 94.04 4.69 94.07 4.71 94.36 4.52 95.95 3.47 96.17 3.39 98.76 3.22 99.84 3.15 100.27 3.35 100.37 3.4 101.43 2.59 101.84 2.41 103.53 1.67 105.46 1.05 105.6 1 108.13 1.89 108.04 1.97 109.54 2.13 109.8 2.21 110.72 2.21 110.75 2.21 111.01 2.21 111.01 2.42 111.02 2.44 111.01 2.46 111.01 2.47 111 2.86 110.99 3.01 110.98 3.27 110.93 3.45 110.85 3.61 110.85 3.62 110.82 3.69 110.69 3.95 110.63 4.07 110.54 4.25 110.77 4.53 110.82 4.6 110.91 4.4 111.07 4.07 111.19 3.84 111.46 3.3 111.52 3.19 111.86 2.95 112.11 2.79 112.45 2.89 112.52 2.97 112.51 3.21 112.5 3.4 112.5 3.48 112.5 3.52 112.5 3.54 112.5 3.58 112.5 3.72 112.49 3.97 112.47 4.1 112.42 4.44 112.41 4.54 112.4 4.59 112.39 4.65 112.37 4.73 112.37 4.74 112.36 4.81 112.35 4.84 112.27 5.14 112.25 5.2 112.25 5.21 112.17 5.47 112.02 5.69 111.98 5.8 111.97 5.82 111.94 5.92 111.99 6.11 112.2 6.15 112.37 6.04 112.54 5.84 112.76 5.55 112.82 5.47 113.01 5.29 113.14 5.16 113.16 5.14 113.22 5.08 113.24 5.07 113.37 4.94 113.45 4.87 113.5 4.83 113.58 4.71 113.64 4.64 113.76 4.45 114.04 4.03 114.17 3.83 114.32 3.7 114.37 3.66 114.38 3.66 114.47 3.59 114.5 3.58 114.5 3.57 114.53 3.56 114.69 3.53 114.87 3.5 115.17 3.45 115.38 3.41 115.69 3.36 115.89 3.34 116.21 3.39 116.39 3.42 116.57 3.44 116.75 3.53 117.76 4.09 117.94 4.26 118.22 4.52 118.48 4.77 118.77 5.05 119.17 5.44 119.28 5.58 119.44 5.76 119.54 5.85 119.63 5.92 120.15 6.04 120.38 6.12 120.44 6.1 120.9 5.82 121.22 5.81 121.43 5.78 121.52 5.78 121.55 5.77 121.78 5.76 122.13 5.96 122.27 6.09 122.43 6.26 122.68 6.5 123.14 6.62 123.6 6.73 123.56 6.6 123.56 6.59 123.78 6.6 123.91 6.64 123.99 6.66 124.31 6.94 124.67 7.32 124.85 7.55 124.85 7.55 125.01 7.74 125.31 8.16 125.8 8.72 125.9 9.63 126.2 10.46 126.33 11.61 126.31 11.84 126.33 12.02 126.03 11.93 125.84 11.88 126.29 12.58 126.55 13.01 127.23 14 127.82 14.95 127.91 14.97 128.59 16.04 128.68 16.25 128.83 16.7 129.15 17.29 130.61 19.07 132.15 19.48 132.48 19.5 132.76 18.2 133.05 16.89 133.73 18.19 134.36 18.13 134.99 18.17 135.37 18.25 138.35 19 140.24 19.58 144.68 18.73 148.47 17.85 148.63 17.81 152.25 16.67 152.29 16.65 152.43 16.61 153.78 14.25 156.37 14.97 157.81 13.45 159.47 13.96 161.03 14.44 161.02 14.44 160.98 14.49 161.63 15.67 162.85 16.37 163.7 16.86 164.71 17.41 165.07 17.66 165.69 18.26 166.86 19.38 168.03 20.49 168.41 20.81 168.7 21.11 169.3 21.66 171.07 21.88 172.05 22.01 172.78 22.09 173.02 22.24 173.44 22.48 173.88 22.62 174.51 22.57 174.71 22.53 174.72 22.53 174.73 22.53 175.24 22.43 175.29 22.42 175.49 21.27 175.51 21.12 175.57 20.67 177.29 19.83 178.05 19.49 178.34 19.56 179 19.73 181.06 20.22 183.6 19.6 183.79 19.55 184.21 19.42 186.53 21.56 187.76 22.71 187.85 22.64 192.18 19.59 192.2 19.62 192.92 20.44 194.59 20.98 197.46 21.03 197.48 21.07 197.49 21.1 197.93 22.05 198.34 22.95 201.05 24.22 202.44 23.84 204.04 24.77 205.64 25.7 205.66 25.71 205.69 25.73 206 25.97 207.06 26.82 207.59 27.24 208.94 28.32 211.14 27.9 211.37 27.86 211.59 27.83 212.95 28.07 213.91 28.25 215.54 31.23 217 32.03 216.88 32.36 215.42 36.7 215.85 39.22 217.68 41.35 217.62 41.84 217.34 44.08 217.52 44.37 217.69 44.67 217.7 44.68 217.96 45.27 218.16 45.72 218.5 46.5 218.54 46.59 218.58 46.67 218.59 46.69 218.61 46.74 222.78 47.4 227.17 51.22 227.27 51.3 227.52 51.55 227.41 52.68 227.39 52.72 227.25 52.67 227.25 52.68 227.39 52.72 227.28 52.92 227.14 53.2 227.17 53.21 230.54 54.67 233.17 55.17 235.14 56.1 235.63 56.02 237.31 55.85 239.22 56.35 239.73 56.5 240.07 56.26 240.24 56.14 240.27 55.85 240.32 55.16 240.47 55.19 240.47 55.51 240.41 55.91 240.54 55.78 241.55 54.8 243.06 53.37 244.57 54.15 246.16 53.98 246.99 55.57 247.21 55.58 247.44 55.59 247.64 56.16 247.26 58.17 246.96 59.79 246.95 59.84 246.89 60.15 247.4 60.76 247.92 60.78 247.93 60.8 248.11 61.77 248.17 61.78 250.11 62.37 250.34 63.57 250.34 63.58 255.57 65.2 256.16 65.38 257.27 65.54 257.62 65.58 258.5 65.71 258.85 65.74 259.27 65.79 259.8 65.69 260.46 65.56 260.58 65.58 261.52 65.69 262.3 65.35 264.82 65.37 266.9 65.75 267.34 65.72 269.25 65.59 270.51 65.16 271.65 64.96 272.15 65.58 272.74 66.31 272.77 67.06 272.78 67.43 273.13 68.08 273.16 68.16 273.28 68.47 272.55 69.2 272.08 69.61 271.4 70.77 271.36 70.89 271.32 71.03 271.07 71.59 271.24 72.08 270.99 72.53 271.01 73.35 271.01 73.5 271.02 73.86 270.96 74.05 270.8 74.59 270.8 74.61 271.29 77.45 271.29 77.46 271.63 79.19 272.48 79.41 273.37 81.59 273.98 82.14 275.32 83.31 275.79 83.71 279.72 84.97 279.98 85.32 282.32 88.53 284.4 90.29 284.55 90.41 284.53 90.46 284.56 90.42 284.86 90.68 285.67 91.37 286.6 90.79 286.87 90.62 286.89 90.61 288.51 92.34 288.62 92.45 288.83 92.67 289.57 92.84 290.51 92.7 291.06 92.39 291.75 92.01 291.82 91.91 292.63 90.6 293.11 90.17 294.29 89.2 295.88 88.4 296.63 88.5 298.1 88.76 298.3 88.77 298.47 88.78 299.23 88.68 300.1 88.9 301.03 89.15 301.56 89.3 301.65 89.95 301.99 91.84 303.25 93.05 304.51 94.26 306.79 94.09 307.61 94.04 307.93 94.77 308.22 95.54 308.92 97.33 308.89 97.39 308.87 97.44 308.72 97.75 309.02 98.82 309.16 99.17 309.17 99.22 309.19 99.29 309.25 99.54 309.3 100.07 309.33 101.58 309.34 102.08 309.34 102.31 309.34 102.79 309.37 103.76 309.4 104.71 309.65 104.91 309.77 105.01 309.86 105.11 311.21 106.1 311.5 106.32 312.98 107.66 313.8 108.36 314.06 108.55 314.33 108.81 315.5 108.8 316.01 108.6 316.26 108.52 316.47 108.45 316.56 109.57 316.77 112.04 316.95 112.13 317.43 112.36 319 113.05 319.85 113.45 320.4 113.97 321.42 114.84 321.8 115.17 322.25 115.61 322.37 115.7 322.47 115.78 322.64 115.86 322.93 115.97 323.22 116.08 323.93 116.1 324.67 116.11 326.89 116.94 328.82 116.3 330.03 116.41 331.12 117.53 330.89 118.41 330.86 118.51 330.99 119.32 331.12 120.16 328.94 121.59 327.96 121.99 328.14 124.15 329.03 125.63 329.03 125.65 329.02 125.67 329.02 125.69 329.02 125.78 328.73 126.87 328.73 126.9 328.69 127.02 328.59 127.41 329.84 129.06 329.95 129.22 329.99 129.28 330.4 129.65 330.4 129.66 331.93 131.06 332.62 131.46 332.64 131.77 332.67 132.13 332.77 133.03 333.36 134.2 333.76 134.62 337.77 133.51 338.56 135.72 339.8 137.02 340.23 137.46 340.26 137.5 340.28 137.52 340.28 137.52 340.3 137.54 340.35 137.59 341.44 136.31 342.55 135.79 345.42 135.49 345.63 134.72 345.93 134.35 347.33 132.66 348.22 132.33 348.22 132.33 349.31 130.73 349.52 130.8 349.85 130.91 352.01 131.64 352.12 132.34 352.31 133.42 354.11 133.91 354.19 134.06 354.32 134.31 354.35 134.37 354.45 134.49 357.42 137.96 358.83 138.31 359.19 138.73 359.65 139.27 361.34 140.23 363.57 140.99 363.87 141.17 365.09 141.86 365.88 142.3 366.21 143.71 366.49 144.26 367.28 145.85 368.03 147.26 368.17 147.58 369.11 147.3 370.27 146.96 373.32 146.25 373.9 146.15 374.41 146.19 375.73 147.24 376.74 146.65 377.18 146.15 377.88 145.86 378.19 145.73 378.97 146.17 381.03 146.55 383.92 147.12 385.74 147.53 388.81 147.68 390.48 146.77 391.31 146.22 393.26 146.96 393.68 146.15 393.69 146.14 393.84 145.86 394.83 145.41 395.47 145.12 396.03 144.92 397.14 144.51 397.86 143.92 398.76 142.95 401.56 142.38 402.31 141.43 402.92 140.59 403.11 140.32 403.19 140.21 403.32 140.09 404.38 139.52 404.65 139.38 406.52 139.88 408.38 139.22 409.1 139.2 410.81 137.73 412.11 137.01 412.41 137.29 412.85 137.7 413.36 138.18 413.77 138.57 413.99 138.78 418.58 143.15 418.62 143.23 418.64 143.26 418.64 143.94 418.67 144.03 418.69 144.08 418.76 144.18 419.99 146.8 420.79 148.22 421.03 148.84 422.84 149.79 424.02 150.76 425.74 150.07 427.77 148.8 430.41 148.03 432.1 149.36 432.19 149.43 433.25 151.78 433.53 152.38 433.71 152.79 434.05 153.51 434.02 153.71 434.07 153.55 434.13 153.7 434.31 154.08 435.93 153.76 437.85 153.38 440.94 153.71 441.95 153.77 442.47 153.88 443.42 153.79 445.34 153.42 445.36 153.33 445.41 153.19 446.28 153.03 446.48 153.21 446.97 153.63 450.1 154.07 451.55 154.84 452.46 155.71 452.47 155.78 453.11 157.12 454.75 156.82 455.48 157.31 457.29 160.63 457.36 161.68 457.38 161.91 461.14 163.46 464.71 165.78 467.59 166.48 474.34 167.44 475.63 168.98 477.47 170.43 478.62 169.74 480.18 170.43 480.99 170.13 481.92 169.89 483.08 170.18 485.67 169.89 487.65 171.63 489.21 172.33 489.95 172.08 490.58 171.34 490.85 170.92 492.05 170.58 493.45 170.91 494.82 171.37 495.24 171.51 495.52 171.55 496.03 172.08 496.09 172.3 496.18 172.49 496.71 172.71 496.91 172.78 497.16 172.9 497.49 173.1 497.68 173.11 498.59 173.08 499.32 173.04 499.35 173.04 499.35 173.07 499.19 173.84 499.2 173.97 499.51 175.24 499.74 176.2 500.25 176.56 501.91 177.84 502.6 178.45 503.78 180.65 505.95 181.23 507 182.27 508.38 183.63 507.99 185.92 508 187.27 507.51 189.53 507.51 191 507.33 191.51 507.28 192.41 507.38 193.4 507.51 194.62 508.09 196.62 507.05 198.31 506.52 200.74 506 202.75 505.57 203.43 504.41 206.58 503.44 208.2 502.42 209.34 502.02 210.18 501.62 210.7 501.5 210.89 502 212.44 502.1 212.65 502.51 213.35 502.1 214.64 502.3 215.81 503.69 217.02 503.99 217.87 503.65 221.09 503.23 222.25 503.29 223.74 502.96 224.85 502.27 227.42 501.64 229.83 500.47 232.3 500.49 232.34 500.46 232.44 501.13 234.26 499.87 234.78 497.75 236.02 496.79 237.4 495.1 238.39 494.81 239.48 493.29 240.63 490.23 246.54 490.18 246.46 490.13 249.4 489.58 253.59 486 253.08 482.62 255.33 481.94 255.76 481.51 255.98 481.09 256.18 480.35 256.42 479.87 256.58 478.95 256.86 478.05 257.57 477.54 258 476.79 259.74 476.59 260.05 476.02 260.96 475.2 262.24 473.75 261.43 472.73 261.73 471.52 262.08 468.95 261.65 466.77 261.29 464.38 262.63 461.36 262.78 456.09 263.07 454.76 264.55 454.78 264.79 454.96 265.63 455.88 267.22 455.06 268.11 455.75 269.78 455.33 272.09 454.16 273.08 453.63 273.53 453.15 273.8 453.05 274.5 452.94 275.45 451.59 276.22 451.52 276.51 451.35 277.19 451.14 277.96 451.04 278.35 449.96 279.69 449.68 280.37 449.52 280.76 449.41 281.01 449.39 281.2 449.27 281.64 449.19 281.98 449.16 282.21 449.07 282.56 449.03 282.97 448.99 283.32 448.96 283.5 448.9 284.41 448.88 285.68 448.53 286.39 448.22 287.07 448.12 287.32 447.88 287.86 447.81 288.28 447.64 289.2 447.6 289.36 447.53 289.85 448.21 291.12 448.39 291.56 448.48 292.02 446.81 295.2 446.5 295.46 444.77 295.45 444.05 295.85 442.59 295.73 441.62 297.76 441.73 300.13 440.51 300.25 439.92 303.41 440.39 304.95 439.51 305.71 439.29 305.81 438.18 306.33 437.75 307.32 437.17 309.32 436.33 310.57 436.21 310.96 434.69 312.71 435.67 316.48 436.33 319.5 437.94 322.7 435.27 323.95 431.74 325.89 430.25 327.61 430.14 327.68 429.76 327.9 428.98 328.13 428.71 328.27 427.26 327.02 426.09 326 425.54 325.96 425.45 325.96 424.81 325.67 424.57 325.53 424.27 325.34 424.07 325.22 423.07 324.73 422.9 324.67 422.03 324.28 421.92 324.23 421.89 324.26 421.8 324.23 421.64 324.16 421.29 324.6 420.17 326.02 419.76 328.08 419.24 329.25 418.92 330.4 418.77 330.4 417.79 331.38 418.32 332.69 419.2 333.98 420.03 335.75 420.41 337.43 420.84 338.84 421.17 339.95 421.52 340.76 422.04 341.86 422.23 342.17 422.59 342.65 423.58 343.66 424.36 344.39 424.7 344.77 425.22 345.34 425.44 345.6 426.04 346.48 426.65 347.55 426.84 348.04 427 348.45 427.02 348.88 427.06 349.63 426.98 350.25 426.93 350.77 426.88 351.14 426.99 351.65 427.27 352.27 427.66 352.84 428.11 353.29 428.19 353.35 428.32 353.43 428.55 353.48 428.72 353.24 428.84 353.04 428.93 352.89 429.02 352.73 429.54 352.19 429.94 351.84 430.14 351.72 430.48 351.5 430.88 351.3 430.94 351.28 431.18 351.18 431.56 351.01 431.87 350.9 432.43 350.68 432.36 350.38 433.24 350.18 433.68 350.11 434.72 349.92 436.48 349.65 437.88 349.84 438.36 349.89 439.67 350.03 441.21 350.55 442.54 350.95 443.94 351.1 443.98 351.3 443.99 351.38 444.05 351.71 444.06 351.78 444.2 352.57 444.48 352.56 444.95 352.46 445.47 352.28 445.75 352.13 446.22 351.74 446.69 351.14 446.73 350.78 446.74 350.74 446.98 350.35 446.98 350.21 446.98 350.16 447 349.57 447 349.29 447.1 349.15 447.49 348.58 447.88 348.03 448.12 347.69 448.25 347.5 448.33 347.39 448.7 346.85 448.93 346.53 449.13 346.23 449.32 345.94 449.8 345.22 450 344.95 450.46 344.34 450.5 344.36 450.9 344.56 451.01 344.48 451.49 344.14 452.14 343.67 452.51 343.41 452.76 343.22 453.33 342.8 453.63 342.56 453.91 342.34 454.57 342.03 454.84 341.96 455.67 341.76 456.07 341.66 456.41 341.6 456.81 341.52 457.6 341.51 458 341.51 458.27 341.5 459.03 341.5 459.52 341.6 459.88 341.68 460.5 341.96 461.25 342.4 461.62 342.64 462.26 343.27 464.03 345.4 464.38 346.07 464.58 346.84 464.67 347.65 464.61 347.95 464.51 348.57 464.5 348.62 464.38 348.61 464.05 349.94 463.9 350.33 463.48 351.21 463.22 351.81 463 352.34 463.17 352.58 463.43 352.96 463.11 353.83 463.09 353.87 462.69 354.87 462.56 355.22 462.25 355.69 462.12 355.9 461.79 356.3 461.44 356.72 461.39 356.86 461.19 357.47 461.07 357.82 461 358.02 460.98 358.05 460.82 358.52 460.75 358.7 460.72 358.79 460.68 359.06 460.6 359.48 460.58 359.57 460.49 360.16 460.42 360.55 460.31 361.44 460.22 362.08 460.22 362.12 460.22 362.14 460.22 362.44 460.23 363.3 460.24 363.66 460.25 363.93 460.28 364.4 460.32 365.28 460.32 365.35 460.37 365.59 460.45 365.89 460.51 366.15 460.64 366.71 460.76 367.25 460.98 368.32 461.02 368.53 461.03 368.7 461.05 368.99 461.09 369.5 461.11 370.05 461.14 370.62 461.16 371.12 461.24 372.08 461.4 373.12 461.54 374.15 461.59 374.5 461.69 375.03 461.82 375.66 461.99 376.58 462.15 377.54 462.2 377.85 462.34 378.36 462.49 378.87 462.67 379.48 462.85 380.06 463.01 380.61 463.02 380.66 463.17 381.17 463.52 382.16 463.88 383.23 464.21 383.7 464.36 383.93 464.86 384.24 465.3 384.5 466.15 384.73 467.28 385.01 468.36 385.26 469.32 385.52 469.71 385.48 470.89 385.35 471.36 385.3 472.35 385.05 472.88 384.91 473.72 384.9 474.66 384.88 475.38 385.3 475.53 385.39 476 386.04 476.06 387.01 476.11 387.54 476.15 389.03 475.99 390.35 475.93 390.84 475.88 391.86 475.87 392.2 475.81 392.75 475.71 393.71 475.69 393.87 475.01 395.93 474.6 397.5 474.43 399.01 474.47 400.26 474.86 401.95 475.05 402.32 475.42 403.13 476.26 404.49 483.24 405.61 484.51 406.95 485.02 407.73 485.28 408.13 485.79 409.16 486.56 410.76 486.88 412.17 487.13 413.35 487.13 413.36 486.99 415.06 486.89 416.18 486.83 417.26 486.81 417.72 486.68 418.8 486.63 419.19 486.51 420.69 486.66 421.67 486.77 422.31 487.35 423.75 487.76 424.63 488.16 425.48 488.37 425.77 488.68 425.72 489.67 426.05 491.03 426.09 491.46 426.12 491.56 426.69 491.81 428.11 491.91 429.6 491.91 430.42 492 430.92 491.86 431.75 491.66 432.35 491.31 431.82 490.89 431.34 490.43 430.76 489.99 430.24 489.69 430.03 489.67 430.3 489.72 430.54 489.77 430.84 489.73 431.83 490.08 432.85 490.31 433.6 490.36 434.25 490.4 434.64 490.44 435.16 490.19 435.21 490.39 436.5 490.64 437.58 490.8 438.14 490.82 438.44 489.74 438.78 489.84 439.21 489.91 440.08 489.98 440.83 489.19 441.09 488.19 441.49 488.07 441.54 487.84 441.83 487.66 442.05 487.75 442.45 487.41 442.44 486.78 443.41 486.68 443.92 487.01 443.91 487.31 443.9 487.57 443.91 488.04 443.92 488.51 443.94 488.85 443.95 488.87 443.96 489.38 444.1 489.64 444.17 489.65 444.18 489.89 444.49 490.13 444.8 490.54 445.32 490.55 445.34 490.97 445.89 491.33 446.39 491.55 446.67 491.79 446.99 492.04 447.31 492.3 447.64 492.56 447.98 492.88 448.31 493.18 448.62 493.43 448.88 493.59 449.05 494.43 449.97 495.5 451.21 496.5 452.2 497.87 453.55 499.1 454.62 500.28 455.74 501.14 457.13 501.44 457.53 501.69 457.88 501.81 458.08 502.01 458.43 502.45 459.2 502.66 459.67 503.06 460.59 503.1 460.7 503.76 462.06 504.06 462.96 504.27 463.55 504.39 463.9 504.54 464.78 504.67 465.73 504.73 466.2 504.82 466.95 504.92 467.76 505.01 468.88 504.97 469.81 504.87 470.71 504.77 471.62 504.57 472.29 504.12 473.73 503.56 475.55 502.96 476.95 502.66 477.67 502.48 478.09 502.37 478.37 501.98 479.33 501.61 480.19 501.3 480.81 501.05 481.3 500.72 482.01 500.53 482.41 500.22 482.81 499.81 484.22 499.52 485.71 499.33 487.29 499.31 487.82 499.25 489.46 499.2 490.85 499.22 492.2 499.44 493.49 499.77 495.04 500.23 496.84 500.31 497.15 500.34 498.06 500.28 499.04 500.15 500.1 499.89 501.21 499.15 502.63 498.52 503.78 497.79 504.75 496.83 505.91 496.68 506.07 496.17 506.66 495.62 505.95 495.11 506.6 494.69 507.17 494.33 507.64 493.28 509.36 492.51 510.1 492.31 510.29 491.25 511.16 490.22 511.86 488.89 512.56 488.79 512.62 487.58 513.28 486.13 513.97 485.79 514.12 485.74 514.2 485.57 514.52 485.03 515.5 484.82 516.24 484.61 516.97 484.64 518.05 484.93 518.92 485.07 519.16 485.23 519.46 485.65 520.23 486.17 520.54 487.11 520.81 487.42 520.88 487.85 521 488.35 521.11 488.63 521.17 489.44 521.42 490.05 521.58 490.23 521.62 490.44 521.78 490.71 521.99 491.32 522.44 491.74 523.15 492.19 524.04 492.53 524.73 492.82 525.32 492.97 525.63 493.19 526.01 494.7 527.21 495.41 527.93 495.49 528.01 495.8 528.29 497.08 529.21 497.58 529.42 498.49 529.65 500.53 530.2 500.87 530.28 501.74 530.47 502.44 530.63 503.65 530.69 504.77 530.58 506.01 530.46 507.47 530.47 508.95 530.58 510.18 530.97 510.94 531.22 512.53 531.06 512.91 531.04 513.63 530.99 514.24 531 515.38 531 515.89 531 516.71 530.99 517.73 531.04 518.31 531.06 518.84 531.09 519.57 531.12 520.42 531.12 521.39 531.12 522.14 531.16 522.55 531.15 523.46 531.1 523.89 530.95 524.74 530.62 524.75 530.62 525.7 530.38 526.97 530.16 529 529.78 529.26 529.73 529.98 529.66 531.96 529.61 533.18 529.48 534.21 529.38 535.74 529.04 536.45 528.92 538.42 528.5 538.7 528.44 539.97 528.12 540.82 528.02 542.23 528.1 543.9 528.11 545.17 527.98 546.73 527.97 546.86 528.27 547.19 529.01 547.37 529.32 547.59 529.7 547.73 529.85 548.01 530.17 548.25 530.44 548.58 531.01 548.82 531.46 549.22 531.98 549.72 532.66 550.08 533.29 550.1 533.32 550.17 533.46 550.36 533.74 551.26 534.51 550.44 535.14 549.61 535.53 548.48 535.98 547.67 536.24 547.17 536.41 546.86 536.62 547.25 537.47 547.54 537.71 547.83 537.94 548.54 538.3 549.01 538.46 549.72 538.68 550.27 538.94 551 539.27 551.99 539.46 552.16 539.48 552.88 539.52 553.43 539.58 554.66 539.7 555.78 539.91 556.18 540.07 556.44 540.34 556.63 540.67 556.59 540.79 556.56 540.9 556.86 541.52 557.36 542.41 557.51 542.74 556.85 542.67 556.08 544.65 556.27 544.89 556.66 545.37 556.98 546.16 557.15 546.32 557.51 546.67 557.64 546.94 557.85 547.83 557.99 548.86 558.04 549.25 558.85 549.9 559.44 550.75 559.93 551.43 560.35 551.76 560.87 552.2 560.96 552.79 561.11 553.14 561.23 553.42 561.5 553.39 561.83 553.74 561.95 554.11 562.29 554.11 562.47 554.07 562.71 554.41 562.93 554.64 562.95 555.09 563.05 555.16 563.25 555.14 563.37 555.13 563.56 555.15 563.87 555.34 564.13 555.45 564.63 555.63 564.63 555.63 564.89 555.83 564.97 556.06 565.37 556.04 565.72 556.17 566.89 556.56 567.54 556.79 568.28 557.52 569.25 557.67 570.04 558.81 570.25 559.2 571.09 559.48 573.61 558.59 574.26 558.98 574.39 559.05 576.01 560.46 576.19 561.14 576.95 561.7 577.26 562.47 576.94 563.51 576.56 564.14 577.27 565.02 577.68 565.76 577.85 566.7 577.94 567.25 580.69 568.15 581.07 568.32 581.46 568.53 582.16 569.8 582.38 570.27 582.47 570.31 583.42 570.71 584.95 571.31 585.16 571.45 585.46 571.62 585.63 571.72 585.9 571.86 587.14 572.6 587.11 572.82 587.01 573.67 587.06 573.86 587.15 574.2 587.34 574.4 588.28 575.43 589.36 576.38 588.38 578.01 587.99 578.67 587.09 580.16 586.28 581.29 585.91 581.8 586 582.12 585.53 582.8 585.4 582.99 586.28 585.91 586.63 586.48 587.35 587.97 587.41 588.11 588.35 589.75 588.52 591.02 588.87 591.73 588.96 591.91 589.42 592.63 589.54 593.3 589.49 594.78 589.91 596 590.09 596.38 590.15 596.38 590.2 596.51 590.26 596.66 590.29 596.75 590.34 597.02 590.16 597.35 590.08 597.5 590.13 597.96 590.22 598.63 590.29 599.18 590.58 599.89 590.74 600.36 590.66 600.83 590.61 601.15 590.62 601.34 590.63 601.42 591.01 601.56 591.4 601.71 591.82 601.94 592.17 602.14 592.44 602.42 592.87 602.86 593.65 603.17 594.08 603.15 594.41 602.84 594.55 602.76 594.69 602.65 595.07 602.39 595.23 602.3 595.49 602.15 595.65 602.07 595.99 601.83 596.43 601.58 596.76 601.46 596.95 601.39 597.58 601.47 597.97 601.28 598.19 601.08 598.32 600.8 598.64 600.1 598.94 599.77 599.13 599.63 599.31 599.51 599.91 599.26 600.28 599.11 600.74 598.86 601.18 598.61 601.34 598.63 601.53 598.65 601.93 598.62 602.22 598.56 602.54 598.64 602.72 598.69 603.08 598.78 603.33 598.83 603.44 598.85 603.75 598.83 604.12 598.81 604.53 598.76 604.94 598.7 605.3 598.65 605.52 598.62 605.72 598.56 605.84 598.46 605.94 598.36 606.07 598.02 606.24 597.54 606.49 596.86 606.63 596.64 606.74 596.45 606.88 596.23 607 596 607.12 595.78 607.38 595.63 607.49 595.57 607.7 595.44 608.01 595.25 608.26 595.09 608.32 595.15 608.24 595.2 610.9 595.45 611.63 596.13 611.69 596.25 611.61 596.98 611.53 597 611.31 596.89 610.76 596.74 610.31 596.42 609.89 596.3 608.94 595.94 608.67 596.01 608.71 596.07 608.87 596.12 609.21 596.22 609.37 596.31 609.51 596.39 609.95 596.51 610.03 596.53 610.4 596.62 610.52 596.7 610.72 596.85 611.6 597.07 611.81 597.41 611.87 597.34 613.15 597.15 616.29 596.64 617.58 596.12 619.22 595.81 619.95 597.1 621.26 597.91 624.5 598.07 625.86 599.09 627.01 600.68 628.08 601.3 630.16 603.69 632.83 603.93 634.31 603.88 635.33 603.78 636.15 603.64 640.86 601.67 641.12 601.56 641.74 601.98 642.04 602.24 642.59 602.84 642.76 602.99 643.31 603.5 643.92 604.31 643.94 604.32 643.95 604.32 644.1 604.45 644.16 604.52 644.26 604.57 644.29 604.58 644.74 604.96 644.93 605.36 645.02 605.56 645.45 605.42 645.67 605.45 646.15 605.52 646.39 605.41 646.77 605.2 646.82 605.17 647.06 605.13 647.5 605.05 647.62 605.06 648.09 605.08 648.45 605.12 648.74 605.14 648.79 605.13 648.86 605.13 648.94 605.12 649.08 605.09 649.34 605.03 649.5 605 649.8 604.9 649.93 604.85 650.67 604.62 650.99 604.41 651.11 604.33 651.29 604.31 651.79 604.23 652.11 604.21 652.38 604.21 652.6 604.2 652.78 604.19 653.41 604.15 653.79 604.1 654.43 603.95 654.98 603.87 655.37 603.82 655.84 603.74 656.97 603.5 657.02 603.43 657.08 603.22 657.1 603.16 657.58 602.62 657.63 602.56 657.78 601.99 657.98 601.37 658.01 601.27 658.19 600.88 658.26 600.69 658.44 600.42 658.61 600.27 658.74 600.16 658.95 599.94 659.2 599.47 659.39 598.97 659.52 598.61 659.55 598.52 659.62 598.36 659.77 598.03 659.78 598.02 660.11 597.61 660.42 597.39 660.72 597.13 660.95 596.92 661.4 596.63 661.71 596.43 662.07 596.19 662.4 595.97 662.72 595.88 662.9 595.93 663.04 595.98 663.28 596.07 663.45 596.14 663.64 596.2 664.31 596.46 664.95 596.56 665.41 596.57 666.06 596.53 666.5 596.53 667.18 596.64 667.94 596.59 668.57 596.55 669.96 596.61 670.52 596.67 670.73 596.73 671.15 596.94 671.49 597.21 671.83 597.45 672.07 597.55 672.37 597.63 672.83 597.7 673.13 597.69 673.45 597.65 673.67 597.58 673.96 597.48 674.09 597.39 674.19 597.27 674.49 596.72 674.58 596.55 674.78 596.14 675.14 595.76 675.53 595.52 675.69 595.44 676.39 595.26 676.72 595.15 677.11 595 677.22 594.96 677.52 594.79 677.87 594.45 678.04 594.21 678.25 593.93 678.32 593.73 678.43 593.43 678.55 592.83 678.6 592.57 678.63 592.34 678.63 591.7 678.64 590.78 678.76 590.28 678.97 589.79 679.23 589.55 679.25 589.53 679.47 589.43 680.09 589.19 680.17 589.19 680.62 589.19 680.96 589.23 681.37 589.22 681.56 589.23 682 589.25 682.79 589.2 683.24 589.12 683.66 589.09 684.17 588.91 685.28 588.8 686.03 588.79 686.4 588.7 686.33 588.6 687.06 588.34 687.09 588.33 687.99 587.73 688.39 587.6 690.13 587.39 690.7 587.38 691.06 587.34 691.86 587.26 692.49 587.14 692.98 587.02 693.83 586.72 694.58 586.47 695.83 586.11 696.27 585.96 696.71 585.79 698.13 585.59 699.66 585.33 700.02 585.25 700.69 585.08 701.5 584.84 701.54 584.83 701.67 584.78 702.22 584.53 702.69 584.36 702.78 584.37 703.28 584.56 703.25 584.47 703.13 583.96 703.5 583.71 703.7 583.85 703.81 583.89 703.86 583.91 703.99 583.96 704.14 583.92 704.13 583.9 705.23 584.11 703.65 588.33 703.34 588.77 703.06 589.05 700.4 590.88 698.1 591.52 695.07 593.18 692.39 595.32 691.06 597.32 690.02 598.43 689.65 598.84 689.64 599.02 690.1 599.44 690.17 599.45 690.19 599.41 690.51 599.46 690.62 599.48 690.86 599.27 691.01 599.15 691.3 598.89 691.38 598.83 691.77 598.47 692.27 598.3 692.87 598.09 693.36 597.92 693.95 597.71 694.5 597.51 694.65 597.46 694.73 597.43 695.14 597.29 695.73 597.31 696.28 597.27 696.57 597.24 696.75 597.23 697.04 597.21 697.52 597.19 697.95 597.14 698.07 597.1 698.4 597 698.57 596.99 698.71 596.98 699.15 596.97 699.39 596.95 699.58 596.94 699.9 596.8 700.92 596.11 700.99 596.09 701.13 596.13 701.24 596.14 701.54 596.26 702.09 596.62 702.11 596.63 702.39 596.93 702.94 597.31 703.02 597.36 703.36 597.5 703.74 597.66 703.82 597.7 703.95 597.75 704.16 598.05 704.07 598.22 704.04 598.28 704.03 598.3 704.05 598.43 703.91 598.28 703.87 598.36 704.14 598.7 704.6 599.21 704.74 599.41 704.9 599.65 705.19 599.91 705.47 600.18 705.66 600.34 705.91 600.63 706.3 601.03 706.44 601.25 706.4 601.4 706.31 601.59 705.38 602.37 705.34 602.4 704.78 602.88 703.94 603.58 703.68 603.8 703.29 604.13 703.06 604.32 702.52 604.78 702.4 604.91 702.05 605.31 701.87 605.52 701.39 606.06 701.29 606.23 701.21 606.37 701.78 606.87 701.95 607.03 702.16 607.17 702.24 607.37 702.21 608.23 699.66 610.03 698 610.78 692.81 611 692.5 611.16 692.43 611.16 691.64 611.59 691.5 611.67 691.5 611.71 691.42 611.76 691.05 612.49 691.66 612.85 692.6 614.56 692.95 615.95 692.93 617.2 693.5 618.15 693.76 619.2 694 619.53 694.06 619.52 694.35 619.72 694.45 619.76 694.88 619.76 695.57 619.71 695.84 619.68 696.27 619.65 696.59 619.6 697.04 619.51 697.47 619.4 697.62 619.37 697.87 619.32 697.96 619.31 699.57 618.97 699.66 619.05 699.78 619.16 699.78 619.22 699.73 619.22 699.77 619.27 699.8 619.26 699.87 619.41 699.92 619.74 700.32 620.26 700.46 620.42 700.93 621.02 701.06 621.19 701.47 621.8 702.01 622.66 703.42 624.03 703.88 624.59 704.12 624.9 705.78 627.01 706.72 628.48 706.77 628.61 706.9 628.9 706.95 629.05 707.12 629.62 707.35 630.11 707.45 630.42 707.46 630.6 707.57 630.89 707.65 631.01 707.73 631.12 707.74 631.12 707.9 631.3 707.92 631.46 708.04 631.79 708.21 631.82 709.13 634.52 709.26 634.83 709.92 637.53 709.05 637.73 708.45 638.92 709.16 641.15 707.64 642.73 707.79 643.25 707.78 645.79 707.91 647.27 708.85 648.04 709.76 648.74 712.22 649.28 712.88 649.41 714.89 650.33 716.86 650.54 719.18 652.31 721.08 654.09 720.02 657.79 719.62 659.3 723.01 662.46 722.99 663.28 723.18 664.85 723.36 665.87 723.2 666.66 722.79 667.75 723.16 668.31 723.11 668.47 722.79 669.29 722.65 669.77 722.08 670.66 721.96 671.64 722.13 673.94 722.67 675.48 723.03 676.28 724.43 677.38 726.42 677.96 728.11 677.25 728.78 677.47 729.55 677.73 730.13 677.89 731.11 678.1 732.54 677.31 733.36 677.47 733.98 677.63 734.14 677.65 735.41 679.04 736.39 679.66 737.43 680.31 738.6 680.46 739.27 680.6 739.76 680.58 743.92 679.79 744.44 679.93 745.24 680.16 745.53 680.24 745.93 681.14 746.91 681.63 748.43 681.39 749.28 681.56 752.3 680.69 754.84 681.32 755.63 681.54 755.78 681.54 758.7 681.15 759.14 681.29 761.41 680.82 761.83 680.79 762.14 680.91 762.43 680.95 764.44 679.77 765.68 678.25 765.77 678.17 766.29 677.62 766.81 677.24 767.86 676.46 768.83 675.68 769.14 675.45 769.5 675.65 771.4 676.71 771.66 676.76 772.18 676.5 772.4 676.48 772.88 676.47 773.75 677.36 774.33 678.98 774.61 680.27 775.56 681.92 775.96 683.85 776.12 684.71 776.13 686.48 777.64 688.49 777.77 689.34 778.73 689.32 779.22 689.1 780.26 688.98 780.95 689.3 782.75 691.14 783.4 693.6 783.42 694.35 783.36 695.2 783.35 696.22 783.57 699.53 783.78 701.96 784.77 705.2 785.11 706.3 784.34 709.12 784.46 711.86 784.87 712.28 785.13 712.54 786 714.35 786.23 714.76 786.94 715.56 787.43 716.02 787.76 716.37 788.22 717.13 788.33 717.22 788.51 717.57 789.18 718.24 791.01 720.16 792.65 720.86 792.71 721.95 792.04 723.42 791.1 724.43 792.33 726.64 792.25 726.87 792.21 727.28 791.7 729.45 792.53 732.96 792.92 733.15 793.11 733.27 793.12 733.6 793.17 737.95 792.86 738.87 790.18 741.02 787.76 740.7 786.01 738.49 784.35 738.66 782.69 738.37 780.77 738.04 777.37 740.13 773.96 738.6 772.75 738.98 771.2 742.09 771.06 742.44 770.26 742.98 768.53 744.3 767.9 744.7 767.43 745.16 766.77 745.86 762.55 747.06 762.34 747.36 762.18 747.63 761.94 748.1 761.83 749.75 763.36 750.69 764.9 751.18 765.32 751.5 765.79 751.95 766.39 752.18 768.57 753.02 769.07 754.58 769.39 754.97 769.54 755.2 771.83 755.33 772.09 756.1 772.43 757.11 773.82 757.69 774.85 758.24 775.77 759.21 776.61 759.39 777.17 760.12 779.12 760.98 780.21 762.74 780.28 763.1 780.27 764.17 780.3 767.48 780.44 767.78 783.63 776.23 783.08 776.57 781.74 777.46 781.75 777.55 782.35 779.56 782.48 780.02 783.14 780.12 783.32 780.15 784.34 780.31 786.09 780.6 786.19 780.83 786.83 782.25 788.29 783.76 789.5 785.08 790.2 785.45 793.31 786.99 793.39 787.03 794.06 787.73 793.58 788.63 792.53 790.47 792.82 791.08 793.53 792.52 793.7 792.89 794.11 795.76 794.12 795.87 793.55 796.76 794.11 798.63 793.56 799.15 793.32 799.75 792.42 802.82 792.12 803.77 792.2 803.98 792.26 804.2 792.14 804.56 792.1 804.88 792.03 805.16 791.9 805.49 791.67 805.86 791.38 806.3 790.54 810.31 790.1 810.42 789.92 810.47 790.02 811.45 791.47 813.13 791.51 813.71 791.61 814.46 793.92 815.29 792.19 817.65 792.1 817.75 792.09 818.59 790.75 821.37 791.13 822.12 791.34 822.34 791.5 822.73 791.7 823.46 793.06 823.75 794.07 824.72 794.72 825.46 795.11 826 795.1 827.36 795.84 827.72 797.44 827.67 797.67 827.69 798.52 828.71 799 829.77 798.64 831.3 798.6 832.68 798.53 832.99 798.46 833.55 798.38 834.25 798.35 834.71 798.31 834.93 797.95 835.19 797.13 835.74 796.7 836.01 796.23 838.29 795.55 838 795.18 837.91 795.06 838.69 793.96 838.46 793.34 838.37 792.41 838.41 791.99 838.5 791.35 838.73 790.69 838.99 790.34 839.32 787.43 840.13 785.35 841.31 783.61 842.07 783.1 842.4 782.51 842.68 781.63 843.08 781.2 843.3 780.67 843.91 778.52 844.42 776.29 844.95 773.46 844.88 769.26 844.84 767.9 845.17 762.32 847.66 759.93 848.67 757.45 850.85 757.44 850.86 756.42 850.04 755.92 849.62 754.31 848.3 749.6 844.4 748.51 843.08 747.66 842.06 745.74 839.72 744.39 838.52 744.19 838.33 743.13 837.34 742.81 837.06 742.72 836.97 742.66 836.91 739.81 834.34 738.24 832.91 737.59 832.31 736.86 831.63 736.03 830.87 734.75 829.68 734.07 829.04 732.12 827.22 731.47 826.59 730.93 826.25 729.58 825.38 728.95 824.96 727.09 823.76 724.14 821.88 722.77 821 718.4 822.07 714.6 822.99 713.33 823.29 712.81 823.42 712.66 823.66 712.09 824.55 711.11 826.26 710.16 827.86 708.98 830.02 705.03 837.14 695.61 847.75 695.46 847.93 692.61 850.62 691.17 851.98 690.68 852.39 689.05 853.73 687.58 854.91 686.13 856.03 685.84 856.25 680.42 858.24 680.44 858.32 681.12 861.77 680.71 861.78 680.5 861.92 679.83 862.24 679.58 862.33 679.34 862.55 679.2 862.76 678.55 862.96 678.26 863.01 677.61 862.79 676.54 862.17 675.85 861.89 675.47 861.83 672.57 860.8 671.77 860.45 670.73 860.13 669.56 859.9 665.77 858.36 664.99 858.14 664.65 857.93 662.32 856.57 661.77 856.11 660.71 855.68 659.43 854.63 658.02 853.67 656.91 855.01 655.55 856.66 655.88 857.68 655.66 861.89 652.75 866.16 652.82 870.53 652.55 873.45 650.73 875.02 649.51 877.15 649.39 877.41 649.23 878.99 648.87 880.65 649.46 882.08 649.82 882.93 649.99 882.92 651.19 882.86 651.74 882.83 651.61 882.02 651.65 882 651.76 881.95 651.8 882.05 651.87 882.26 651.96 882.81 651.99 882.85 652.11 883.04 652.24 882.96 652.27 883.01 652.28 883.02 652.41 883.21 652.56 883.45 652.58 883.68 652.54 883.97 652.43 884.22 652.6 884.22 652.63 884.24 652.73 884.28 652.75 884.45 653.09 884.52 653.14 884.53 653.17 884.58 653.54 885.23 653.69 885.28 654.13 885.42 654.91 885.64 655.2 885.86 655.3 885.84 655.46 885.91 655.92 886.13 655.97 886.33 656.05 886.65 656.91 888.43 657.5 889.71 657.41 890.52 657.37 891.98 656.48 893.99 656.4 894.65 656.41 895.07 656.79 896.72 657.74 897.69 657.75 897.7 658.25 898.21 658.29 898.39 658.3 898.4 658.4 898.84 658.4 898.85 658.46 899.07 658.44 899.22 658.44 899.23 658.43 899.3 658.44 899.32 658.64 899.49 658.71 899.93 658.84 900.06 658.9 900.1 659.01 900.42 659.07 900.55 659.16 901.03 659.32 901.21 659.42 901.63 659.59 901.95 659.64 902.24 659.82 902.47 660.03 902.31 660.15 902.37 660.52 902.72 660.57 902.95 660.68 902.99 660.7 903.11 660.78 903.2 660.69 903.32 660.37 903.53 660.53 903.55 660.66 903.53 660.78 903.42 660.91 903.25 661.03 903.37 661.14 903.58 661.34 903.72 661.42 904.24 661.39 904.64 661.45 904.85 661.53 904.99 661.54 905.02 661.67 905.27 661.7 905.3 661.73 905.33 661.74 905.34 661.87 905.51 661.99 905.59 662.13 905.83 662.28 905.85 662.44 905.9 662.86 906.13 663.15 906.04 663.15 906.01 663.25 906.06 663.36 906.12 663.69 906.53 666.16 908.58 666.32 909.2 666.39 909.45 666.4 909.48 666.41 909.49 666.44 909.6 666.44 909.63 666.43 909.99 666.12 911.31 666.11 911.36 666.05 911.58 665.77 912.24 665.51 912.47 665.44 912.56 664.86 913.18 664.75 913.3 664.57 913.38 663.4 914.28 662.99 916.09 662.83 916.81 662.81 916.89 661.5 920.23 660.87 920.77 661.03 922.64 661.81 924.43 661.44 924.72 661.3 924.83 659.43 924.37 657.3 925.21 657.27 925.22 656.08 926.54 656.04 926.58 655.38 926.95 654.83 927.26 654.7 927.33 654.51 927.44 655.17 930.33 654.36 931.88 654.32 933.05 654.32 933.14 653.66 933.81 652.26 935.24 652.36 935.36 653.18 936.36 653.35 936.24 653.6 936.93 653.89 937.54 654.1 938.24 654.53 938.69 654.64 938.7 654.81 938.98 654.83 939.24 654.89 939.95 655.03 940.28 655.02 940.79 655.04 941.3 654.91 941.31 654.65 941.17 653.7 942.48 653.54 942.58 653.29 942.85 652.78 943.72 652.56 943.87 652.29 943.97 651.84 944.63 651.74 945.47 651.84 946.26 652.19 946.68 652.51 947.24 652.61 947.6 653.04 948.47 651.49 948.45 651.38 948.26 651.33 947.98 651.21 947.56 650.98 947.19 650.92 946.93 650.85 946.4 650.82 945.61 650.83 945.34 651.01 944.29 651.01 944.25 651 944.16 649.2 944.93 647.34 946.71 647.25 946.79 646 946.12 645.86 946.05 643.96 947.79 644.14 948.12 644.17 948.18 644.81 949.37 644.92 949.59 646.69 952.89 647.08 955.84 648.46 956.7 646.86 959.34 646.51 961.89 645.92 962.58 646.27 963.77 645.67 965.47 645.93 966.24 647.46 967.71 648.29 968.19 648.7 968.43 648.71 968.49 648.84 969.84 649.23 970.98 649.14 972.21 649.65 973.1 649.8 973.18 650.45 973.5 650.47 973.6 651.15 976.26 649.57 977.83 649.04 979.93 648.14 981.35 647.87 981.5 647.35 981.78 646.26 982.39 645.3 983.02 644.68 983.06 643.87 983.13 643.73 983.14 643.04 984.45 643.4 985.73 643.9 987.45 644.05 988.02 643.99 988.28 643.72 989.42 643.54 990.12 643.4 990.76 643.27 991.22 643.25 991.38 644.07 993.34 643.72 994.36 643.35 995.38 643.34 995.39 643.13 995.95 642.81 996.26 641.81 997.14 641.26 997.06 639.45 998.33 639.01 998.63 638.98 998.85 638.81 999.86 638.78 999.97 638.67 1000.56 638.19 1000.86 638.09 1000.92 637.93 1001.01 637.61 1001.8 637.49 1002.07 637.51 1002.78 637.5 1002.78 636.52 1004.29 636.47 1004.38 636.07 1005.01 635.98 1005.09 635.48 1005.38 632.79 1007.09 632.64 1007.12 632.64 1007.33 631.45 1006.52 629.63 1005.65 628.94 1005.29 628.69 1005.37 627.94 1005.2 626.6 1004.92 625.7 1004.73 625.12 1005.44 624.64 1006.06 624.28 1006.49 623.75 1007.14 623.83 1007.54 623.88 1007.78 623.9 1007.91 623.77 1008.02 621.75 1009.47 621.12 1009.74 620.48 1009.88 619.1 1010.18 617.87 1011.39 617.61 1011.63 617.21 1011.95 616.55 1012.46 616.53 1012.48 616.28 1012.97 616.28 1012.97 615.97 1013.58 615.49 1014.47 615.17 1014.79 614.47 1015.54 613.47 1016.61 612.16 1017.01 612.13 1017.02 611.87 1017.74 611.54 1018.59 611.49 1019.43 611.47 1019.89 611.46 1020.24 610.62 1020.74 610.43 1020.85 610.21 1021.74 609.93 1022.99 609.86 1023.48 609.69 1024.72 609.55 1025.86 609.54 1025.99 609.21 1026.59 608.97 1027.01 608.89 1027.17 608.9 1027.7 608.92 1027.98 608.71 1028.43 608.42 1029.09 607.41 1031.23 607.26 1032.06 606.99 1033.31 606.94 1034.17 606.89 1035.11 607.01 1035.74 607.14 1036.34 606.69 1037.17 605.83 1038.77 605.81 1038.84 605.81 1038.84 605.71 1039.22 605.65 1039.32 605.58 1039.29 604.9 1038.93 604.67 1038.84 604.56 1038.78 604.4 1038.79 603.06 1038.91 602.85 1039.44 602.58 1040.18 602.32 1040.75 602.14 1041.09 602.07 1041.26 601.91 1041.51 601.38 1042.17 600.88 1042.78 600.88 1043.19 600.92 1043.49 600.92 1043.68 600.1 1044.31 598.78 1045.34 598.74 1045.99 599.04 1046.46 599.28 1046.85 599.31 1046.93 599.31 1046.94 599.33 1046.97 599.56 1047.6 600.33 1049.9 600.52 1050.42 600.29 1051.13 600.27 1051.19 600.26 1051.22 599.85 1052.47 599.85 1052.49 599.75 1053.89 599.74 1054 599.71 1054.4 599.66 1055.29 599.66 1055.3 599.97 1056.07 600.12 1056.4 600.26 1056.77 600.25 1056.96 600.24 1057.47 600.23 1057.69 600.22 1058 600.22 1058.01 599.98 1059.09 599.99 1059.11 600.36 1060.17 600.46 1060.46 600.48 1060.51 600.63 1060.89 600.72 1061.94 600.74 1062.13 600.84 1062.41 601.15 1063.52 601.14 1063.53 599.63 1065.14 599.09 1065.53 597.78 1067.03 597.77 1067.03 597.24 1067.17 596.77 1067.28 595.62 1068.11 594.99 1069.86 594.95 1069.88 594.88 1069.91 594.48 1070.09 594.46 1070.1 593.71 1070.44 592.74 1071.19 591.86 1072.19 591.41 1072.7 591.38 1072.71 591.3 1072.74 591.27 1072.75 590.56 1072.92 589.93 1073.05 589.37 1073.16 589.27 1073.18 589.24 1073.18 588.44 1073.52 586.54 1074.52 585.54 1075.38 584.9 1075.98 584.34 1076.5 583.32 1077.46 583.07 1077.51 582.32 1077.68 582.31 1077.68 582.29 1077.68 582.28 1077.68 581.16 1077.91 580.7 1078 580.68 1078 580.67 1078 580.26 1078.07 580.18 1078.1 578 1079 577.99 1079 577.68 1079.14 576.61 1081.79 576.52 1082.01 576.32 1082.48 574.3 1083.82 574.01 1084.61 572.55 1085.79 572.51 1085.81 571.93 1086.11 571.14 1086.52 570.79 1087.45 570.68 1087.72 569.39 1088.77 569.31 1088.83 567.52 1090.27 567.48 1090.28 564.82 1090.82 564.31 1090.93 562.39 1092.27 562.55 1092.52 561.69 1093.16 561.43 1093.72 559.47 1094.48 559.5 1094.16 559.49 1094.15 558.22 1093.13 557.21 1092.76 556.97 1092.84 556.59 1092.97 555.9 1093.21 552.87 1092.66 551.18 1092.3 547.25 1089.91 546.43 1088.92 546.17 1089.04 543.18 1090.4 542.57 1091.64 540.95 1092.79 539.36 1096.73 539.26 1096.71 538.86 1096.63 537.92 1097.25 536.19 1098.39 534.84 1098.76 534.47 1098.86 532.42 1099.98 531.53 1100.23 531.32 1100.11 531.32 1098.09 530.33 1096.4 529.51 1096.45 529.45 1096.44 529.45 1096.44 528.05 1095.1 527.28 1093.49 526.21 1092.29 524.96 1091.59 523.81 1091.23 521.86 1090.75 518.01 1088.99 517.89 1087.52 516.01 1085.39 514.14 1084.7 514.06 1084.73 513.92 1084.78 513.91 1084.78 513.14 1085.05 512.02 1085.83 509.3 1086.12 506.3 1085.05 504.46 1085.21 503.06 1084.86 499.25 1084.98 496.69 1085.73 494.9 1085.39 492.99 1086.75 492.39 1087.21 492.12 1087.79 491.9 1088.27 490.42 1090.82 490.21 1092.9 489.86 1093.7 489.12 1095.36 487.99 1095.07 487.41 1094.91 484.72 1093.28 484.02 1092.93 483.36 1091.49 483.26 1091.44 480.98 1090.83 480.08 1090.55 477.51 1090.73 476.49 1090.77 475.32 1090.39 474.97 1090.29 473.96 1091.02 473.11 1091.42 472.36 1092.16 468.68 1093.81 468.69 1094.03 468.69 1094.04 468.74 1095.01 468.76 1095.52 468.63 1095.57 468.42 1095.66 468.55 1096.56 468.57 1096.68 469.63 1096.89 470.79 1098.08 471.31 1098.73 471.42 1100.1 471.33 1101.92 471.36 1101.97 471.54 1102.29 471.68 1102.52 470.21 1103.57 469.03 1104.73 467.75 1105.91 466.57 1106.65 466.5 1106.7 465.56 1106.73 465.25 1106.64 465.25 1106.64 464.62 1106.45 463.96 1106.32 463.95 1106.32 462.99 1106.12 462.06 1106.13 461.56 1106.12 460.16 1106.31 460.3 1106.91 460.16 1106.91 459.82 1106.81 459.81 1107.12 459.66 1115.17 458.71 1115.43 455.41 1115.39 454.73 1115.57 454.63 1115.6 454.37 1115.65 453.15 1116.54 450.72 1117.15 449.57 1117.45 447.56 1118.09 444.51 1118.66 443 1118.22 441.29 1118.45 440.52 1118.99 437.8 1119.17 437.18 1119.39 434.29 1120.55 434.24 1119.75 434.22 1119.17 431.45 1117.94 431.27 1117.92 429.62 1117.84 428.4 1117.78 427.89 1117.76 423.9 1120.31 423.54 1120.53 423.41 1120.61 423.43 1120.04 423.3 1118.9 423.24 1118.34 423.11 1118.1 423.06 1118 422.98 1117.85 422.7 1117.36 422.31 1116.6 422.1 1116.74 421.93 1116.84 421.31 1117.22 421.45 1117.46 422.16 1118.64 422.44 1119.51 422.52 1120.22 422.47 1120.45 422.27 1120.85 421.91 1121.4 421.39 1121.9 421.1 1122.14 420.81 1122.37 420.7 1122.46 420.66 1122.48 420.5 1122.61 420.26 1122.73 419.64 1123.01 419.19 1123.11 418.55 1123.12 418.04 1123.08 417.85 1123.07 417.65 1123.04 417.26 1123 416.06 1122.81 415.48 1122.63 415.3 1122.57 414.69 1122.33 414.26 1122.16 413.59 1121.93 412.88 1121.69 412.13 1121.38 411.17 1120.71 411 1120.66 410.09 1120.36 409.57 1120.15 408.45 1119.65 407.74 1119.18 406.92 1118.47 405.54 1117.23 404.91 1117.04 404.58 1116.94 403.71 1116.66 403.15 1116.42 402.31 1116.07 401.59 1115.8 400.82 1115.51 400.44 1115.37 399.69 1115.09 398.85 1114.77 398.59 1114.67 397.86 1114.35 397.29 1114.1 396.51 1113.76 395.91 1113.43 395.41 1113.15 394.91 1112.9 394.87 1113.03 393.7 1112.64 392.38 1112.2 391.05 1111.83 389.65 1111.54 389.13 1111.49 388.65 1111.45 387.91 1111.36 387.21 1111.43 384.09 1112.1 383.78 1112.15 381.14 1112.58 380.53 1112.73 379.63 1112.96 379.04 1113.14 378.48 1113.34 376.7 1114.29 375.18 1114.92 373.98 1115.48 371.09 1117.2 370.43 1117.83 368.43 1120.37 368.01 1121.12 367.79 1121.66 367.65 1122.43 367.59 1123.59 367.78 1124.96 368.05 1125.91 368.68 1129.21 369 1130.27 369.46 1131.71 369.95 1132.98 370.1 1134.06 370.35 1135.29 369.9 1137.3 369.62 1138.55 369.33 1139.04 369.08 1139.65 368.53 1139.97 368.09 1140.23 367.76 1140.44 367.42 1140.71 367.25 1140.83 366.89 1141.36 366.81 1141.5 366.47 1142.06 366.27 1142.31 366.18 1142.39 365.65 1142.71 364.6 1143.19 363.99 1143.42 363.67 1143.52 361.56 1143.54 360.78 1143.54 360.37 1143.6 359.93 1143.71 359.62 1143.63 359.55 1143.59 359.26 1143.39 358.97 1143.2 358.66 1143.1 358.33 1143.07 358.08 1143.07 357.74 1143.26 357.54 1143.33 357.22 1143.35 357.07 1143.38 356.68 1143.54 356.31 1143.72 356.12 1143.8 355.88 1143.88 355.31 1144.07 354.87 1144.29 354.76 1144.31 354.52 1144.34 354.27 1144.38 354.02 1144.47 353.69 1144.58 353.35 1144.79 353.01 1145 352.97 1145 352.71 1145.69 352.51 1145.6 352.41 1145.65 352.3 1145.75 352.18 1145.96 352.06 1146.19 351.88 1146.4 351.56 1146.6 351.26 1146.69 351.14 1146.75 350.93 1146.75 350.46 1146.83 350.02 1147 349.84 1147.02 349.77 1147.03 349.64 1147.01 349.63 1146.73 349.34 1146.31 349.43 1146.13 349.47 1146.06 349.49 1146.03 349.42 1146 349.49 1145.8 349.35 1145.6 348.73 1146.09 348.45 1146.32 348.13 1146.49 347.94 1146.58 347.22 1146.72 346.77 1146.85 346.48 1146.99 346.22 1147.11 346.15 1147.14 346.06 1147.24 345.66 1147.65 345.49 1147.83 345.57 1147.53 345.25 1147.55 344.87 1147.53 344.74 1147.36 343.11 1145.57 342.42 1144.34 341.82 1142.8 341.83 1142.61 341.68 1142.41 341.92 1139.56 341.96 1139.29 341.5 1138.13 340.6 1137.42 339.59 1136.65 339.22 1135.54 339.08 1135.51 337.75 1134.91 337.17 1134.77 335.55 1134.01 335.49 1133.1 335.5 1132.34 334.98 1131.38 333.53 1128.75 332.48 1127.49 331.75 1125.78 330.77 1124.41 328.55 1122.04 327.3 1120.15 325.45 1119.72 324.29 1118.72 324.3 1118.67 323.91 1117.27 323.89 1115.88 323.93 1113.6 323.63 1110.48 324.99 1109.39 327.82 1107.19 326.44 1106.34 326 1105.91 325.4 1105.44 323.76 1105.5 323.23 1105.67 321.42 1106.22 318.52 1105.49 317.45 1106.57 314.84 1106.98 312.37 1106.43 310.61 1106.35 308.95 1106.33 308.01 1106.09 306.19 1105.54 305.67 1105.71 304.43 1106.03 302.64 1105.49 300.79 1104.43 300.68 1104.35 299.17 1103.41 296.23 1103.01 295.14 1102.38 294.3 1101.89 294.07 1101.76 293.69 1101.64 292.17 1101.6 291.95 1100.43 291.87 1099.34 291.57 1094.47 290.16 1093.66 288.97 1092.88 287.6 1092.96 287.24 1092.75 285.5 1093.08 284.28 1092.48 283.29 1091.46 282.8 1091.72 282.34 1092.25 281.9 1093.29 280.93 1094.2 280.15 1094.87 279.75 1095.91 278.04 1096.97 276.04 1094.31 275.14 1093.83 274.93 1093.63 274.4 1093.19 273.84 1090.23 274.01 1089.26 273.44 1087.25 273.92 1086.12 273.27 1084.89 273.27 1083.73 272.66 1082.76 272.95 1077.93 271.81 1076.89 271.33 1076.09 268.74 1075.86 267.56 1075.01 266.81 1074.03 265.63 1072.38 265.42 1071.26 263.51 1068.18 261.9 1065.32 259.1 1064.53 258.05 1063.71 257.38 1063.49 257.05 1062.87 256.88 1061.31 254.82 1059.6 254.11 1057.81 253.62 1056.95 253.18 1056.14 253.13 1055.73 253.03 1054.51 252.04 1053.03 248.88 1052.8 247.19 1052.06 245.31 1050.73 243.34 1050.56 242.21 1049.91 241.24 1049.77 239.99 1049.95 239.22 1049.19 237.52 1048.71 237.82 1046.43 234.49 1046.18 231.1 1045.69 227.44 1045.28 223.99 1044.81 222.09 1044.5 219.18 1043.28 216.25 1041.87 213.05 1040.19 209.61 1038.46 206.34 1036.66 205.87 1036.38 203.35 1034.92 201.87 1033.82 200.57 1032.86 198.95 1031.33 200.43 1029.42 201.3 1028.33 201.61 1027.96 202.11 1027.58 202.46 1027.45 202.9 1027.41 203.45 1027.34 204.34 1027.21 204.69 1027.08 204.93 1026.85 204.95 1026.82 205.01 1026.74 205.13 1026.57 205.18 1026.27 205.13 1025.95 204.87 1025.45 204.93 1025.28 205.22 1025 205.46 1024.77 205.77 1024.33 205.93 1024.03 205.96 1023.91 206.07 1023.68 206.12 1023.55 206.24 1023.2 205.92 1023.56 205.85 1023.76 205.54 1021.91 205.92 1021.48 205.22 1018.97 204.77 1015.51 204.73 1013.85 204.62 1013.79 204.66 1013.72 204.82 1013.43 206.37 1011.75 206.91 1010.65 207.18 1008.82 206.07 1006.7 204.91 1005.2 204.91 1003.58 206.02 1001.16 205.87 999.01 204.32 996.67 204.04 995.73 203.92 995.57 203.38 994.82 200.8 993.47 197.9 989.76 197.57 988.15 199.23 987.14 202.13 985.38 204.34 983.35 205.53 981.35 206.52 981.08 207.12 980.84 210.84 980.98 211.38 979.76 211.23 975.34 211.24 974.59 211.33 972.11 211.37 969.68 212.55 967.39 213.05 966.5 215.58 963.38 214.4 959.79 214.91 958.98 213.66 956.68 214.06 953.86 213.9 952.07 213.14 950.9 212.33 950.46 212.53 948.03 211.73 944.28 211.52 943.44 208.81 940.61 208.68 940.49 206.76 938.51 205.34 937.03 201.75 939 200.7 940.41 198.41 941.16 197.4 940.52 196.33 939.93 194.84 937.91 192.01 932.36 190.18 931.17 187.42 930.11 185.77 926.87 184.99 925.35 185.41 923.14 184.9 921.12 184.76 920.61 184.35 919.14 183.88 916.75 182.67 915.84 181.52 914.27 179.76 909.39 179.66 907.06 178.97 904.48 179.49 903.54 175.47 892.54 177.31 890.34 177.75 889.91 178.49 889.05 180.65 888.05 182.43 886.81 183.89 885.33 183.35 881.59 184.11 880.35 184.35 879.23 184.83 877.73 185.22 876.8 185.58 876.44 185.94 875.54 187.8 875.36 187.9 874.76 187.93 874.1 187.83 873.1 187.73 871.61 187.96 869.54 188.47 868.49 188.15 866.4 187.74 865.38 187.68 863.62 187.63 862.54 187.92 860.62 188.05 860.05 188.1 859.79 188.33 859.59 188.57 859.37 187.86 859.62 187.85 859.41 187.63 859.52 187.61 859.77 187.34 859.85 187 859.95 186.57 860.11 185.73 860.45 185.47 860.62 185.47 860.61 185.4 860.32 185.36 860.17 185.9 859.92 186.2 859.84 186.41 859.69 186.6 859.54 187.62 858.96 187.59 858.93 187.63 858.43 187.66 858.3 187.45 857.11 187.03 856.95 185.98 857.19 185.35 857.16 184.89 857.16 184.12 857.19 181.94 855.28 181.73 854.98 180.42 854.26 179.99 854.4 179.79 854.41 179.36 854.36 178.6 854.05 178.17 853.87 176.92 853.3 176.2 852.95 175.19 852.52 174.52 852.29 174.53 852.24 174.39 852.14 174.42 851.5 174.43 851.17 174.43 850.89 174.37 850.89 173.19 850.28 173.12 849.9 173.06 849.52 172.18 848.62 172.15 848.59 172.14 848.85 172.05 848.83 171.9 848.36 171.41 847.85 171.08 847.58 170.89 847.41 170.64 847.2 170.45 847.08 169.48 846.44 168.85 846.28 168.06 846.03 167.74 845.96 167.1 845.86 166.67 845.78 165.48 845.89 164.94 845.92 164.77 845.8 164.12 845.82 163.46 845.67 162.91 845.71 162.6 845.44 162.2 845.09 161.88 844.74 161.72 844.65 161.37 844.36 161.22 844.35 160.8 844.35 160.41 844.38 160.14 844.38 158.91 844 158.77 843.94 157.28 843.84 157.1 843.86 156.57 843.89 155.47 843.73 154.91 844.01 154.81 844 154.71 843.99 153.93 843.94 152.05 844.91 151.73 844.87 150.67 844.71 150.42 844.68 150.04 844.89 149.85 844.99 149.74 845.23 148.67 846.49 148.02 846.71 147.96 846.7 147.18 846.6 146.69 847.28 146.06 848.27 146.53 849.2 144.72 849.34 143.88 849.38 143.28 848.97 142.68 847.94 142.33 847.07 141.36 847.34 140.09 846.62 139.87 846.5 139.51 846.73 139.38 846.71 138.55 846.74 137.62 846.4 137.12 845.58 137.07 846.15 137.12 846.66 137 846.83 136.8 846.24 136.82 846.15 136.72 846.07 136.65 845.65 136.57 845.41 135.64 843.06 135.49 842.74 135.52 842.28 135.57 842.02 135.58 841.54 135.31 841.05 133.8 840.19 133.69 840.15 133.57 840.1 133.2 839.95 132.25 839.51 131.89 839.05 131.75 838.93 131.59 838.81 131.56 838.78 131.58 838.76 131.56 838.66 131.49 838.73 131.24 837.43 130.9 835.5 130.83 835.06 131.22 833.7 130.81 832.11 130.44 831.67 130.4 831.62 129.17 831.17 127.42 830.48 127.29 830.21 126.89 829.41 127.2 826.91 127.25 826.4 127.32 826.26 127.63 825.64 127.4 825.1 127.91 823.88 127.72 823.46 127.66 823.34 127.55 823.23 128.59 822.2 129.33 822.05 129.58 822 130.03 821.94 130.27 821.8 130.84 821.41 131.66 820.87 131.79 820.62 132.01 820.22 132.56 819.99 132.83 819.13 133.61 818.76 133.87 818.52 134.1 818.89 134.49 819.39 134.69 819.52 134.74 819.47 135.06 819.49 135.28 819.88 135.5 820.26 136.11 820.88 136.37 820.86 136.94 821.02 137.16 821.08 137.68 820.9 138.1 820.72 138.8 819.64 138.99 819.19 139.13 817.09 139.32 816.59 139.53 816.16 140.31 815.31 140.79 814.6 141.23 813.94 141.79 813.09 142.06 811.65 142.01 811.45 141.08 811.79 139.73 811.98 139.42 812.02 139.2 812.03 139.03 811.99 138.46 811.15 138.2 810.95 138.05 810.86 137.84 810.68 137.66 810.56 137.58 810.46 137.51 810.32 137.34 810.13 137.12 809.93 137.23 809.94 137.4 809.96 137.35 809.91 137.09 809.87 137.07 809.91 136.55 809.83 136.1 809.71 135.72 809.63 135.49 809.58 135.31 809.49 134.35 808.4 136.52 804.62 136.08 803.66 136.01 803.45 135.53 801.77 134.7 801.5 134.36 801.67 133.24 802.22 133.02 802.37 132.5 802.61 132.42 802.64 131.72 802.11 130.81 801.4 129.87 799.67 130.44 798.24 130.11 798.09 129.67 797.88 128.97 796.85 128.45 796.08 128.21 795.29 128 794.65 127.75 794.47 126.36 793.5 125.65 792.93 125.23 792.6 122.86 792.41 120.96 791.38 119.32 790.48 118.65 789.85 117.83 788.74 120.22 787.36 119.75 786.3 121.19 781.63 118.35 779.93 118.64 779.25 120 778.8 120.61 778.17 122.2 775.93 122.31 775.78 125.88 773.37 126.93 772.73 127.64 769.51 127.93 768.2 128.21 767.73 128.67 767 129.23 766.12 131.07 765.61 132.51 764 134.11 762.27 136.1 762.2 137.04 762.21 138.48 759.19 140.49 757.82 141.74 757.25 142.25 756.42 142.36 756.35 143.78 755.46 144.18 755.15 145.25 754.34 145.97 753.17 146.23 752.16 146.48 750.95 147.58 749.6 150.32 748.5 152.15 747.76 152.54 746.45 152.94 745.41 151.19 742.59 150.14 741.89 149.47 740.94 146.89 738.4 146.77 738.27 146.61 738.12 146.5 738.02 146.44 737.92 146.43 737.91 146.31 737.78 145.6 736.97 145.13 736.45 145.84 735.12 145.29 733.35 145.18 733.21 144.85 732.79 144.24 732.03 143.78 731.91 142.97 731.71 142.66 731.15 142.81 729.55 141.44 727.56 140.02 725.91 140.26 725.25 140.21 724.94 139.39 722.75 137.12 722.31 136.37 721.72 135.82 721.03 135.44 719.81 135.26 719.74 134.99 719.64 134.82 719.55 134.31 719.26 134.4 718.57 134.47 717.86 132.88 715.36 133.03 712.73 133.43 709.8 132.84 709.18 132.09 707.84 131.74 706.07 132.07 704.89 131.15 704.48 128.54 703.89 126.69 703.2 126.79 700.99 127.48 699.65 127.39 698.07 125.42 695.19 125.73 693.79 126.58 692.92 127.58 690.86 128.55 689.42 129.28 688.58 129.42 687.66 130.49 686.4 132.06 685.62 130.2 683.03 130.48 681.87 130 680.75 130.26 679.42 130.07 678.26 128.98 677.65 130.18 673.62 130.25 672.61 132.33 670.57 133.04 670.04 135.53 668.17 138.57 665.99 140.49 664.16 140.79 663.55 141.8 662.56 142.82 661.55 143.12 660.99 143.62 660.83 144.19 660.87 144.48 661.17 145.51 661.2 146.87 660.92 147.92 661.44 148.82 660.74 149.9 660.73 150.29 661.04 150.34 661.54 152.6 662.9 153.87 664.26 154.46 665.98 157.31 667.24 158.03 666.83 160.79 667.55 161.36 666.81 162.97 665.83 163.95 664.26 164.55 662.53 165.36 661.88 165.45 661.74 165.66 661.25 165.71 661.25 165.94 661.21 166.15 661.07 166.29 660.96 166.17 660.87 166.18 660.32 166.26 660.32 166.39 660.09 180.02 659.34 180.03 659.26 179.9 658.54 179.8 658.11 179.68 657.49 179.53 657.01 179.39 656.63 179.86 656.55 179.62 655.91 178.99 654.99 178.44 654.47 177.71 653.87 176.75 652.97 175.91 652.58 174.88 651.99 174.52 651.77 173.94 651.46 173.41 651.21 173.14 651.02 172.81 650.71 172.59 650.37 171.56 648.1 170.94 647.06 170.81 646.84 169.87 645.36 169.6 645.01 169.51 644.9 169.18 644.56 168.56 643.56 168.01 642.79 167.29 641.79 165.81 639.92 165.38 639.21 164.77 638.45 164.03 637.36 163.94 637.22 164.19 636.9 164.25 636.68 164.25 636.54 164.3 636.43 165.66 634.8 165.8 634.93 165.76 635.05 166.08 635.03 167.43 634.79 169.08 634.65 170.25 633.91 171.05 632.53 171.53 632.06 171.84 631.2 172.11 630.43 172.18 630.28 172.49 630.07 172.68 629.73 172.81 629.23 172.88 628.84 172.82 628.73 172.35 627.48 172.07 626.78 172.15 626.11 172.19 625.86 172.3 625.43 173.7 623.47 173.59 622.91 173.55 621.98 173.47 621.01 173.1 620.29 173.41 619.66 174.14 619.44 174.55 619.45 175.91 617.79 176.14 617.35 176.61 616.84 176.72 616.55 175.69 615.39 175.67 614.93 176.27 614.13 176.24 613.66 176.51 613.23 176.48 613.18 176.49 612.01 176.98 610.67 177.56 610.02 178.71 609.57 178.92 609.17 179.09 608.89 179.54 608.36 180.09 607.78 180.15 607.15 179.98 606.55 180.11 605.68 180.16 605.56 180.11 605.3 180.01 604.95 181.07 604.77 182.14 604.84 183.36 603.99 184.05 602.67 183.36 601.92 183.24 601.74 182.47 600.46 182.52 600.27 182.85 599.12 182.83 598.27 182.62 598.18 183.25 597.49 184.58 594.89 184.81 594.62 185.77 593.52 186.26 593.6 187.16 593.75 188.56 593.11 188.91 592.93 190.08 593.04 190.23 592.99 190.47 592.88 190.7 592.9 191.42 592.88 191.96 593.02 192.21 593.12 192.82 593.15 194.23 594.15 194.9 594.15 195.55 594.05 196.23 594.49 196.58 594.19 197.25 593.59 198.2 593.71 199.53 593.1 201.08 593.11 201.61 592.85 201.8 592.07 202.48 591.53 202.91 590.67 202.95 590.28 204.03 589.33 205.34 589.41 206.38 588.26 208.02 587.22 208.4 587.06 209.45 586.51 210.69 584.98 212.13 584.38 212.27 581.72 211.95 579.94 212.63 578.28 212.86 576.77 213.25 575.73 212.87 572.92 213.31 571.06 213.65 569.6 213.79 567.73 213.97 566.13 214.39 566.15 215.1 565.51 215.59 564.02 215.79 563.46 217.38 562.37 217.61 562.21 218.37 560.8 218.48 560.67 220 559.32 221.52 558.67 222.31 557.42 222.84 556.92 223.33 554.97 224.36 553.53 224.58 551.64 224.84 550.47 224.78 548.7 225.39 547.57 224.6 546.36 224.86 545.68 224.21 544.79 223.67 542.72 223.66 542.72 221.91 541.2 221.89 541.18 221.52 540.31 221.52 540.3 220.99 539.8 220.97 539.78 220.87 539.28 220.87 539.28 220.04 538.65 220.02 538.63 219.86 538.23 219.53 537.73 219.52 537.71 218.72 537.58 217.26 536.56 215.94 536.33 213.83 534.73 212.28 534.93 210.55 534.6 209.87 533.79 209.41 533.23 209.39 533.21 208.33 533.19 207.76 532.49 207.74 532.46 207.04 532.68 206.62 532.5 206.57 532.48 206.52 532.21 206.52 532.2 206.52 532.19 205.86 532.24 205.31 531.62 205.29 531.6 204.66 531.36 204.3 531.36 203.94 531.35 202.84 531.26 202.75 531.27 201.57 531.45 201.39 531.95 201.24 532.54 201.3 533.04 200.56 533.34 199.76 534.04 199.05 534.27 198.74 534.33 197.73 534.9 197.57 534.89 197.01 534.84 196.9 534.85 196.5 534.89 196.41 535.48 195.68 535.79 195.07 536.5 193.91 536.81 193.86 536.78 192.87 536.14 192.77 536.2 192.23 536.47 191.6 536.74 191.14 537.15 190.41 537.32 190.3 537.31 189.57 537.22 189.55 537.23 189.52 537.25 188.67 537.71 187.87 538.01 187.69 538.02 186.66 538.04 185.13 537.74 183.6 537.43 183.89 535.88 184 535.26 182 533.46 180.92 531.34 179.59 530.28 178.3 529.41 177.79 527.91 178.04 526.64 178.17 526.01 178.25 525.78 178.48 525.04 178.64 524.5 177.39 522.56 175.41 520.43 175.38 520.41 174.96 520.02 174.44 518.68 174.21 518.42 173.79 517.92 173.74 517.79 173.21 516.3 173.58 515.32 173.6 515.26 173.9 514.46 173.99 512.94 174 512.72 174.04 512.61 174.07 512.5 174.09 512.42 174.12 512.33 174.17 512.15 174.15 511.61 174.15 511.55 174.12 510.87 174.3 510.51 174.64 509.8 174.74 509.59 174.82 509.49 174.83 509.48 175.12 509.12 175.34 508.69 175.67 508.03 175.66 508.01 175.41 507.01 175.47 505.84 175.49 505.59 175.94 505.02 175.96 505 175.96 504.99 175.97 504.98 176.4 504.45 176.41 503.22 176.61 502.92 177.3 501.89 177.34 501.25 177.36 500.92 177.36 500.92 177.4 500.4 176.81 499.44 176.98 499.04 177.12 498.69 177.14 498.65 178.21 496.05 179.1 493.1 179.1 493.08 179.17 492.86 179.2 491.7 179.21 491.58 179.21 491.49 179.21 491.44 179.2 491.44 178.22 491.48 176.13 489.49 175.44 489.03 175.04 489.05 174.2 489.09 174.18 489.09 174.16 489.1 173.22 489.24 172.6 489.72 170.4 490.63 169.66 490.92 168.96 491.48 167.06 492.97 167.15 494.92 167.66 495.25 168.02 496.2 167.85 497.06 165.35 498.32 163.37 498.86 162.08 499.14 161.93 499.29 161.89 499.33 161.73 499.49 161.43 499.81 160.31 500.09 160.24 500.74 160.24 500.75 160.24 500.77 159.9 501.04 159.86 501.08 159.7 501.1 159.32 500.96 158.2 500.07 157.39 498.65 155.32 496.52 152.64 494.61 152.6 494.58 152.84 494.02 153.03 493.61 152.66 487.12 152.65 487.12 152.13 486.27 152 486.01 151.92 485.84 151.62 485.74 149.43 485.12 149.22 484.78 149.01 484.43 148.98 484.39 148.95 484.33 147.76 484.28 146.86 484.24 145.93 484.2 145.71 483.99 145.3 483.59 143.37 481.7 143.28 482.52 143.19 482.97 143.02 483.4 142.75 483.77 142.38 484.24 142.32 484.2 142.91 483.3 142.99 482.96 143.09 482.7 143.14 482.37 143.22 482.06 143.27 481.6 142.69 481.03 Z" id=""/>
</g>
</svg>